<?xml version="1.0" encoding="UTF-8" standalone="no"?><!DOCTYPE svg PUBLIC "-//W3C//DTD SVG 1.1//EN" "http://www.w3.org/Graphics/SVG/1.1/DTD/svg11.dtd"><svg width="100%" height="100%" viewBox="0 0 709 709" version="1.1" xmlns="http://www.w3.org/2000/svg" xmlns:xlink="http://www.w3.org/1999/xlink" xml:space="preserve" xmlns:serif="http://www.serif.com/" style="fill-rule:evenodd;clip-rule:evenodd;stroke-linejoin:round;stroke-miterlimit:1.41421;"><g><path d="M445.537,462.099c-78.334,61.87 -166.524,9.723 -166.524,9.723l69.394,-74.715l78.052,20.672l19.078,44.32Z" style="fill:#f7f7f7;fill-rule:nonzero;"/><path d="M288.743,470.122c8.661,4.115 25.099,10.865 45.55,14.218c38.801,6.358 73.734,-1.766 103.917,-24.154l-16.088,-37.377l-71.777,-19.013l-61.602,66.326Zm69.962,28.174c-9.744,0 -18.777,-0.908 -26.788,-2.243c-32.562,-5.422 -55.004,-18.535 -55.943,-19.09l-6.38,-3.773l76.878,-82.775l84.326,22.336l22.033,51.194l-3.594,2.84c-31.005,24.489 -63.489,31.511 -90.532,31.511" style="fill:#44194f;fill-rule:nonzero;"/><path d="M463.687,326.527c0,0 12.673,-14.507 26.266,-7.949c13.591,6.558 13.187,30.762 9.296,35.188c-3.892,4.431 -26.894,-1.234 -26.894,-1.234l-8.668,-26.005Z" style="fill:#8a68c9;fill-rule:nonzero;"/><path d="M507.128,350.256l-12.043,-2.781c4.463,-19.311 -17.323,-26.987 -18.253,-27.304l3.994,-11.695c11.526,3.934 31.857,17.73 26.302,41.78" style="fill:#44194f;fill-rule:nonzero;"/><path d="M259,454.489l-5.87,35.634l40.475,-16.964l0,-10.976l-34.605,-7.694Z" style="fill:#db543e;fill-rule:nonzero;"/><path d="M460.694,470.845l26.807,12.16c13.43,6.093 28.889,5.748 42.024,-0.955c25.199,-12.857 64.889,-35.508 74.697,-55.038c2.501,-4.982 1.447,-11.148 -2.577,-15.002c-4.544,-4.35 -10.319,-5.708 -15.723,-5.724c-7.327,-0.022 -13.356,-5.874 -13.007,-13.193c0.331,-6.88 -1.115,-13.981 -7.425,-17.134c-12.566,-6.282 -18.992,4.337 -18.992,4.337l-85.804,90.549Z" style="fill:#f55944;fill-rule:nonzero;"/><path d="M470.794,468.868l19.175,8.7c11.841,5.372 25.27,5.066 36.843,-0.839c39.096,-19.944 65.367,-39.045 72.075,-52.397c1.335,-2.662 0.773,-5.955 -1.373,-8.009c-2.801,-2.684 -6.708,-4.051 -11.61,-4.066c-5.265,-0.014 -10.338,-2.183 -13.917,-5.947c-3.49,-3.67 -5.276,-8.465 -5.034,-13.502c0.292,-6.118 -1.098,-9.991 -4.134,-11.51c-7.422,-3.711 -10.846,1.485 -11.211,2.09l-0.335,0.551l-0.441,0.463l-80.038,84.466Zm36.746,24.469c-7.648,0 -15.306,-1.626 -22.507,-4.893l-34.438,-15.623l91.184,-96.226c3.558,-5.29 13.066,-12.633 26.38,-5.981c5.265,2.634 11.396,8.718 10.723,22.764c-0.084,1.752 0.541,3.42 1.761,4.704c1.342,1.414 3.272,2.226 5.295,2.233c8.073,0.023 14.745,2.507 19.838,7.382c5.894,5.645 7.45,14.69 3.784,21.994c-10.178,20.26 -47.665,42.55 -77.321,57.679c-7.789,3.973 -16.237,5.967 -24.699,5.967" style="fill:#44194f;fill-rule:nonzero;"/><path d="M116.105,345.688c0,0 -29.659,87.277 50.87,98.517l16.578,0l-17.081,-53.986c0,0 -39.215,-32.642 -50.367,-44.531" style="fill:#3b43dc;fill-rule:nonzero;"/><path d="M115.974,345.688c0,0 6.825,58.351 63.06,62.409l16.578,0l-28.321,-52.681c0,0 -40.165,2.161 -51.317,-9.728" style="fill:#3bbcdc;fill-rule:nonzero;"/><path d="M497.706,361.901c0,0 23.757,16.377 16.138,29.147c0,0 -61.176,11.535 -52.731,33.367c0,0 4.737,6.387 13.698,8.034c0,0 -8.034,13.182 20.082,19.362c28.116,6.179 40.318,5.096 47.734,-13.44c7.417,-18.538 9.425,-31.36 9.425,-31.36c0,0 17.206,-44.68 -19.822,-50.996c-37.027,-6.316 -43.208,-0.908 -43.208,-0.908l8.684,6.794Z" style="fill:#fdb046;fill-rule:nonzero;"/><path d="M515.121,198.704c0,0 -22.501,-134.741 -143.301,-143.703c-120.801,-8.96 -175.986,118.558 -220.898,135.748l-38.244,20.322c0,0 23.406,15.646 65.014,4.608c41.607,-11.038 246.757,-131.758 252.938,16.347c0,0 11.121,-2.667 16.889,7.632c0,0 23.361,-53.592 67.602,-40.954" style="fill:#9b6bf9;fill-rule:nonzero;"/><path d="M326.057,60.683c0,0 -47.129,17.902 -72.463,79.077c0,0 -77.057,55.642 -101.557,54.392c0,0 37.767,-36.143 71.052,-71.376c33.285,-35.231 82.1,-58.261 102.968,-62.093" style="fill:#ec3251;fill-rule:nonzero;"/><path d="M202.203,312.778c0,0 -66.696,1.875 -10.743,90.382c0,0 21.352,13.531 23.823,21.05c0,0 7.415,-28.94 25.335,-25.231c17.92,3.707 13.986,39.989 14.52,50.669c0,0 46.052,20.22 68.753,2.309l8.796,-12.581c0,0 36.205,2.393 37.598,-16.916c-7.691,-12.151 -66.33,-40.268 -66.33,-40.268c0,0 31.335,-31.376 67.56,-31.07c0,0 4.238,-16.597 -9.829,-16.553c-14.065,0.043 -26.713,10.853 -55.054,8.282c-28.344,-2.573 -104.429,-30.073 -104.429,-30.073" style="fill:#fdb046;fill-rule:nonzero;"/><path d="M156.271,191.711c0,0 49.449,-27.715 95.983,-59.129c24.718,-16.682 199.23,-153.329 182.442,100.561c0,0 -250.566,5.738 -323.07,-15.685l44.645,-25.747Z" style="fill:#44194f;fill-rule:nonzero;"/><path d="M275.664,340.585c0,0 -32.574,14.371 -20.217,36.308c12.359,21.935 4.325,62.481 4.325,62.481l-64.16,-44.427c0,0 44.49,-70.033 80.052,-54.362" style="fill:#f58e31;fill-rule:nonzero;"/><path d="M116.861,208.848c0,0 65.672,23.91 93.786,3.518c28.116,-20.393 139.622,-24.556 165.591,34.685c0,0 22.467,46.288 51.251,45.968c0,0 11.846,-6.914 18.304,-12.578c0,0 43.846,-12.566 24.074,-27.19c0,0 6.797,-12.975 37.384,-9.475c30.587,3.503 10.197,51.7 -5.561,65.913c-15.758,14.213 -34.289,18.036 -34.289,18.036c0,0 -25.853,-19.673 -29.473,1.123c-3.616,20.798 -0.577,20.86 -0.577,20.86l-69.958,4.06c0,0 6.181,-19.936 -2.058,-21.01c-15.404,-2.01 -19.156,9.68 -53.758,10.093c-34.604,0.411 -111.434,-30.484 -111.434,-30.484c0,0 -27.394,2.883 -47.579,-10.71c-20.187,-13.595 -49.846,-40.785 -48.611,-56.85l33.239,-8.187l-20.331,-27.772Z" style="fill:#f79e36;fill-rule:nonzero;"/><path d="M117.258,208.848c0,0 65.275,15.616 93.389,-4.777c28.116,-20.392 140.02,-16.261 165.986,42.98c0,0 22.471,46.288 51.255,45.968c0,0 11.843,-6.914 18.304,-12.578c0,0 43.846,-12.566 24.071,-27.19c0,0 6.798,-12.975 37.387,-9.475c30.585,3.503 10.194,51.7 -5.563,65.913c-15.756,14.213 -34.289,18.036 -34.289,18.036c0,0 -15.657,-15.506 -19.275,5.29c-3.618,20.797 -2.986,18.107 -2.986,18.107l-77.744,2.646c0,0 6.178,-19.936 -2.062,-21.01c-15.404,-2.01 -19.154,9.68 -53.759,10.093c-34.604,0.411 -111.431,-30.484 -111.431,-30.484c0,0 -27.395,2.883 -47.58,-10.71c-20.186,-13.595 -49.846,-40.785 -48.61,-56.85l33.614,-7.879l-20.707,-28.08Z" style="fill:#fdb046;fill-rule:nonzero;"/><path d="M167.947,214.631c0,0 36.934,112.862 174.113,119.201c0,0 -30.691,17.76 -81.977,0c-51.289,-17.758 -54.839,-23.67 -71.602,-17.932c0,0 -63.608,-27.163 -82.556,-73.096c0,0 29.015,-9.377 29.954,-13.329c0,0 -15.392,-7.579 -18.95,-18.036c0,0 36.043,9.989 51.018,3.192" style="fill:#f58e31;fill-rule:nonzero;"/><path d="M429.694,231.065l-51.361,24.001l-4.821,-9.417c-0.765,-1.484 -1.705,-2.842 -2.841,-4.078c-18.39,-19.551 -75.042,-64.068 -150.452,-34.159c-19.676,7.835 -36.063,12.012 -49.583,13.841c-0.025,0 -0.05,0.025 -0.075,0.025c-29.016,3.954 -44.96,-2.917 -52.424,-8.033c-3.855,-2.619 -5.463,-4.795 -5.463,-4.795c3.436,-0.05 6.551,0.741 9.912,1.656c14.211,3.732 33.244,9.22 103.293,-38.336c7.587,-5.141 15.769,-10.926 24.592,-17.375c64.857,-47.457 121.385,-68.616 152.43,-33.839c35.345,39.597 26.793,110.509 26.793,110.509" style="fill:#f7f7f7;fill-rule:nonzero;"/><path d="M225.878,171.77c-15.3,17.648 -41.375,45.776 -55.243,49.483c-0.025,0 -0.048,0.025 -0.073,0.025c0,0 -34.356,6.946 -52.697,-7.835l0.273,-0.199l10.894,-2.78c14.21,3.732 30.895,3.245 96.846,-38.694" style="fill:#dbdbdb;fill-rule:nonzero;"/><path d="M250.297,332.036c0,0 -58.751,-0.52 -56.28,58.183l-18.28,-9.755c0,0 -31.516,-60.798 32.233,-68.441l42.327,20.013Z" style="fill:#9b6bf9;fill-rule:nonzero;"/><path d="M275.664,336.222c0,0 -82.184,11.123 -79.712,69.826l-20.214,-21.23c0,0 4.014,-60.3 79.401,-54.422l20.525,5.826Z" style="fill:#f7f7f7;fill-rule:nonzero;"/><path d="M308.486,381.161l50.464,28.219c0,0 45.315,-24.798 109.165,-6.221l47.193,-16.693c0,0 -10.94,-29.799 -34.834,-33.515c-23.892,-3.716 -110.196,-3.921 -128.322,2.876c-18.125,6.798 -37.076,12.77 -43.666,25.334" style="fill:#fffeff;fill-rule:nonzero;"/><path d="M333.957,399.672c-2.188,-0.063 -5.351,-3.115 -7.195,-4.582c-4.544,-3.606 -11.539,-1.305 -7.935,-5.844c0.761,-0.961 21.48,-24.115 61.016,-23.133l0.038,0c5.779,0.165 10.902,3.819 10.758,9.602c-0.144,5.796 -4.174,7.664 -9.955,8.088c-28.832,2.112 -42.888,17.681 -43.009,17.833c-2.14,2.695 -0.524,-1.874 -3.718,-1.964" style="fill:#e5e5e5;fill-rule:nonzero;"/><path d="M334.067,396.674c1.274,0.041 2.339,0.431 3.192,1.168c4.867,-4.464 18.996,-15.255 43.206,-17.03c6.519,-0.479 7.114,-2.721 7.175,-5.173c0.105,-4.136 -3.868,-6.413 -7.844,-6.527c-33.534,-0.866 -52.937,16.25 -57.554,20.874c1.912,0.418 4.273,1.079 6.383,2.753c0.354,0.281 0.748,0.614 1.175,0.972c1.003,0.846 3.348,2.819 4.267,2.963m2.647,8.814c-0.19,0 -0.388,-0.018 -0.596,-0.055c-1.973,-0.358 -2.538,-2.119 -2.753,-2.787c-0.002,-0.002 -0.004,-0.009 -0.004,-0.014c-2.669,-0.326 -5.292,-2.536 -7.425,-4.333c-0.379,-0.318 -0.731,-0.616 -1.041,-0.861c-1.327,-1.053 -3.136,-1.428 -4.735,-1.76c-2.005,-0.416 -4.279,-0.888 -5.098,-3.151c-0.837,-2.31 0.8,-4.372 1.416,-5.148c0.199,-0.249 21.942,-25.254 63.439,-24.266c8.018,0.23 13.896,5.678 13.72,12.676c-0.166,6.693 -4.45,10.397 -12.732,11.004c-27.421,2.012 -40.841,16.67 -40.973,16.818c-0.369,0.468 -1.485,1.877 -3.218,1.877" style="fill:#c1c1c1;fill-rule:nonzero;"/><path d="M461.07,380.6c-1.339,-1.208 -2.347,-2.801 -2.792,-4.634c-1.097,-4.497 1.633,-8.689 6.092,-9.362c0.942,-0.144 26.377,-5.132 50.659,16.599c0.008,0.007 1.838,3.871 1.845,3.878c3.538,3.189 -2.683,0.417 -5.578,3.656c-2.903,3.247 -9.295,4.319 -12.687,0.956c-7.913,-7.839 -30.123,-8.823 -30.272,-8.802c-2.648,0.403 -5.31,-0.529 -7.267,-2.291" style="fill:#e5e5e5;fill-rule:nonzero;"/><path d="M468.017,380.558c0.985,0 23.625,0.912 32.252,9.458c1.273,1.261 3.077,1.389 4.022,1.371c2.036,-0.06 4.092,-0.933 5.244,-2.222c1.35,-1.511 3.074,-2.113 4.584,-2.384c-0.09,-0.189 -0.189,-0.399 -0.298,-0.628c-0.272,-0.57 -0.541,-1.14 -0.717,-1.507c-21.695,-19.104 -43.953,-16.465 -48.228,-15.735l-0.151,0.027c-1.459,0.219 -2.687,0.977 -3.467,2.14c-0.825,1.227 -1.069,2.765 -0.688,4.33c0.319,1.313 1.037,2.5 2.078,3.44c1.498,1.348 3.489,1.982 5.335,1.71l0.034,0Zm36.043,15.552c-2.806,0 -5.322,-0.965 -7.112,-2.741c-6.3,-6.241 -24.049,-7.991 -28.468,-8.114c-3.187,0.42 -6.464,-0.628 -8.989,-2.901c-1.75,-1.579 -2.962,-3.595 -3.506,-5.831c-0.698,-2.865 -0.217,-5.734 1.354,-8.075c1.527,-2.274 3.897,-3.759 6.679,-4.176c4.734,-0.811 29.232,-3.726 52.584,17.173c0.332,0.26 0.332,0.26 1.48,2.687c0.278,0.58 0.554,1.162 0.728,1.529c0.878,0.837 1.874,2.053 1.341,3.608c-0.603,1.762 -2.423,1.896 -3.629,1.985c-1.203,0.089 -2.703,0.201 -3.466,1.058c-2.004,2.238 -5.308,3.693 -8.622,3.792c-0.125,0.004 -0.249,0.006 -0.374,0.006" style="fill:#c1c1c1;fill-rule:nonzero;"/><path d="M265.849,338.937c0,0 -61.741,22.349 -60.875,74.064l-12.657,-12.478c0,0 3.294,-50.941 62.822,-66.691l10.71,5.105Z" style="fill:#44194f;fill-rule:nonzero;"/><path d="M524.608,264.025c2.946,10.374 -9.435,22.979 -27.654,28.155c-18.221,5.174 -35.379,0.96 -38.326,-9.414c-2.947,-10.374 9.436,-22.979 27.657,-28.155c18.217,-5.175 35.377,-0.96 38.323,9.414" style="fill:#fd9544;fill-rule:nonzero;"/><path d="M492.94,134.832l-15.835,-20.755c-36.771,-53.394 -109.092,-70.508 -176.55,-45.67c0,0 184.652,-64.401 132.886,165.468l14.078,-5.34l9.795,-31.369c14.006,-38.472 35.626,-62.334 35.626,-62.334" style="fill:#3bbcdc;fill-rule:nonzero;"/><path d="M507.677,166.767c0,0 -34.825,-37.1 -59.438,62.834l5.518,4.701c0,0 23.201,-67.661 57.081,-44.85l-3.161,-22.685Z" style="fill:#44194f;fill-rule:nonzero;"/><path d="M357.098,410.904c0,0 17.607,-16.856 80.378,-13.206l32.391,3.296c0,0 -22.585,14.592 -4.959,29.098l6.916,1.533c0,0 7.608,16.977 21.105,20.641l22.381,3.408c0,0 -24.434,35.477 -66.144,15.085l-18.743,-10.897l-42.124,0c0,0 -32.902,20.155 -49.586,21.191c-16.684,1.036 -38.158,1.923 -41.093,-21.693c0,0 22.926,-1.065 35.329,-19.214c0,0 29.893,0.696 35.926,-14.906c6.034,-15.603 -11.777,-14.336 -11.777,-14.336" style="fill:#c5bdba;fill-rule:nonzero;"/><path d="M447.519,239.126c0,0 5.046,-19.528 15.087,-36.062c6.362,-10.476 12.772,-21.298 23.636,-25.283c28.012,-10.272 28.879,27.53 28.879,27.53l-7.87,38.096c0,0 -17.302,-1.284 -46.961,9.845l-12.771,-14.126Z" style="fill:#f7f7f7;fill-rule:nonzero;"/><path d="M463.722,334.822c-2.924,0 -5.577,-2.162 -5.937,-5.342c-0.331,-2.907 1.644,-5.628 4.461,-6.417c30.216,-8.46 53.765,-36.294 56.017,-56.025c1.777,-15.561 -8.066,-18.641 -10.058,-19.1l-5.94,-1.209l1.371,-5.907c0.073,-0.333 7.227,-34.15 -1.806,-72.342c-11.953,-50.546 -45.32,-84.66 -99.176,-101.398c-87.557,-27.211 -153.066,37.302 -205.706,89.142c-26.26,25.862 -49.458,48.705 -71.938,57.521c5.365,3.734 13.127,7.772 22.212,8.42l15.485,1.108l-12.236,9.556c-0.7,0.547 -15.374,11.795 -36.933,12.635c8.207,17.203 31.67,57.264 81.176,63.538c3.273,0.414 0.108,1.99 -0.346,5.256c-0.455,3.265 -3.466,5.541 -6.739,5.091c-64.463,-8.987 -87.942,-75.42 -88.909,-78.244l-1.412,-4.116c-0.766,-2.235 1.057,-4.507 3.404,-4.242l4.325,0.488c9.883,1.115 18.526,-0.719 25.071,-3.095c-13.162,-5.464 -21.42,-14.574 -21.885,-15.094l-2.338,-2.619c-2.112,-2.366 -0.791,-6.132 2.336,-6.661l3.463,-0.584c22.363,-3.773 47.63,-28.655 76.883,-57.467c54.912,-54.075 123.246,-121.373 217.632,-92.04c72.667,22.585 98.491,72.553 107.356,110.494c7.524,32.191 4.454,60.774 2.671,72.095c7.474,3.847 15.866,12.93 13.905,30.129c-2.733,23.935 -28.287,56.053 -64.807,66.208c-0.534,0.15 -1.072,0.221 -1.602,0.221" style="fill:#44194f;fill-rule:nonzero;"/><path d="M447.662,348.893c0,-0.824 -2.317,-22.038 10.89,-23.892c13.208,-1.854 22.398,26.819 22.398,26.819l-33.288,-2.927Z" style="fill:#f79e36;fill-rule:nonzero;"/><path d="M208.392,426.467c-9.598,-8.11 -18.581,-17.042 -26.553,-27.033l-2.972,-3.767c-1.006,-1.243 -1.846,-2.634 -2.776,-3.948l-2.727,-3.999c-0.857,-1.377 -1.672,-2.792 -2.509,-4.19c-3.305,-5.609 -6.067,-11.684 -8.056,-18.166c-1.903,-6.476 -3.014,-13.538 -2.083,-20.719c0.92,-7.147 3.899,-14.164 8.424,-19.665c4.494,-5.539 10.222,-9.615 16.173,-12.621c2.993,-1.502 6.079,-2.715 9.213,-3.716c3.175,-0.995 6.241,-1.752 9.699,-2.233c1.83,-0.254 3.518,1.022 3.773,2.851c0.224,1.612 -0.737,3.113 -2.219,3.624l-0.244,0.083c-10.865,3.756 -21.637,9.982 -27.83,18.597c-2.999,4.361 -4.931,9.195 -5.396,14.398c-0.53,5.181 0.262,10.662 1.938,16.024c0.21,0.669 0.345,1.353 0.578,2.024l0.75,2.005c0.531,1.33 0.919,2.694 1.558,4.005c1.238,2.628 2.382,5.284 3.878,7.843l2.101,3.893l2.358,3.794c1.519,2.557 3.262,5.011 4.95,7.503c6.884,9.901 14.668,19.341 22.484,28.901l0.033,0.038c1.119,1.371 0.916,3.388 -0.452,4.507c-1.214,0.991 -2.938,0.945 -4.093,-0.033" style="fill:#44194f;fill-rule:nonzero;"/><path d="M231.905,320.227c11.819,4.674 24.102,8.803 36.383,12.247c6.153,1.727 12.352,3.212 18.555,4.418c1.551,0.315 3.102,0.603 4.653,0.835c1.537,0.238 3.139,0.537 4.576,0.687c2.943,0.344 5.917,0.467 8.884,0.328c5.929,-0.264 11.819,-1.462 17.403,-3.499c1.409,-0.524 2.735,-1.07 4.158,-1.701l4.542,-1.985c3.052,-1.302 6.159,-2.564 9.398,-3.705c3.243,-1.135 6.601,-2.182 10.354,-2.807c1.884,-0.299 3.866,-0.5 6.015,-0.416c2.137,0.083 4.498,0.484 6.802,1.494c2.304,0.991 4.416,2.626 5.96,4.464c1.57,1.842 2.637,3.819 3.417,5.719c1.574,3.83 2.215,7.468 2.69,11.004c0.438,3.269 -1.857,6.275 -5.126,6.713c-3.269,0.438 -6.273,-1.857 -6.713,-5.127c-0.004,-0.033 -0.007,-0.069 -0.012,-0.105l-0.011,-0.101c-0.322,-2.894 -0.849,-5.714 -1.724,-7.911c-0.422,-1.11 -0.935,-2.02 -1.467,-2.661c-0.538,-0.649 -1.054,-1.059 -1.724,-1.381c-1.296,-0.659 -3.687,-0.784 -6.346,-0.381c-2.667,0.39 -5.559,1.203 -8.454,2.167c-2.904,0.968 -5.84,2.099 -8.778,3.294l-4.418,1.844c-1.558,0.659 -3.242,1.323 -4.891,1.9c-6.656,2.303 -13.663,3.604 -20.714,3.797c-3.526,0.103 -7.058,-0.1 -10.555,-0.568c-1.792,-0.225 -3.376,-0.554 -5.041,-0.841c-1.658,-0.278 -3.294,-0.611 -4.92,-0.97c-6.522,-1.384 -12.94,-3.042 -19.259,-4.929c-12.666,-3.791 -24.969,-8.153 -37.222,-13.241c-2.372,-0.982 -3.497,-3.705 -2.512,-6.077c0.974,-2.347 3.648,-3.472 6,-2.542l0.097,0.037Z" style="fill:#44194f;fill-rule:nonzero;"/><path d="M513.155,388.491c-4.438,-12.792 -21.273,-23.041 -21.443,-23.145l-0.608,-0.413c-15.184,-11.782 -88.66,-10.796 -132.573,-4.937c-37.6,5.012 -48.689,24.316 -49.143,25.136l-10.896,-5.831c0.556,-1.043 14.051,-25.643 58.406,-31.554c35.186,-4.692 119.352,-9.346 141.485,7.194c2.728,1.688 20.859,13.391 26.447,29.501l-11.675,4.049Z" style="fill:#44194f;fill-rule:nonzero;"/><path d="M356.239,415.972l-8.235,-9.213c0.742,-0.673 18.81,-16.467 69.11,-15.814c47.517,0.606 58.7,5.027 60.461,5.906l-5.529,11.054c0,0 0.067,0.04 0.228,0.105c-0.41,-0.167 -10.556,-4.138 -55.318,-4.706c-44.708,-0.564 -60.562,12.536 -60.717,12.668" style="fill:#44194f;fill-rule:nonzero;"/><path d="M292.351,365.452c-0.035,-0.057 -0.08,-0.107 -0.128,-0.147l0.178,0.14l0.47,0.363l1.054,0.791l2.197,1.603l4.496,3.178c3.02,2.103 6.071,4.175 9.14,6.214c6.143,4.074 12.358,8.043 18.652,11.829c6.293,3.784 12.667,7.412 19.133,10.68c6.429,3.23 13.091,6.278 19.442,7.938l1.173,0.372l0.679,0.486c0.372,0.267 0.477,0.358 0.675,0.518l0.497,0.424c0.318,0.279 0.612,0.561 0.902,0.851c0.572,0.579 1.106,1.191 1.61,1.841c1.001,1.305 1.88,2.776 2.516,4.436c1.334,3.288 1.387,7.323 0.303,10.528c-1.04,3.248 -2.796,5.784 -4.633,7.874c-0.923,1.063 -1.891,2.003 -2.874,2.888c-0.435,0.422 -1.126,0.957 -1.754,1.437c-0.634,0.504 -1.302,0.86 -1.961,1.282c-2.663,1.525 -5.384,2.374 -8.016,2.926c-2.641,0.538 -5.219,0.764 -7.751,0.826c-5.064,0.119 -9.934,-0.445 -14.686,-1.343c-9.487,-1.85 -18.533,-5.039 -27.06,-9.406c-4.258,-2.199 -8.378,-4.714 -12.261,-7.664c-3.871,-2.956 -7.529,-6.344 -10.613,-10.42c-1.483,-1.961 -1.095,-4.756 0.867,-6.239c1.922,-1.453 4.639,-1.113 6.145,0.744l0.066,0.082c5.061,6.255 12.4,11.114 20.114,14.846c7.767,3.72 16.139,6.398 24.561,7.791c4.201,0.68 8.439,1.025 12.474,0.811c3.992,-0.19 7.945,-1 10.503,-2.603c0.282,-0.217 0.634,-0.386 0.873,-0.614c0.258,-0.232 0.486,-0.37 0.86,-0.753c0.685,-0.657 1.337,-1.325 1.88,-2c1.133,-1.339 1.9,-2.708 2.201,-3.823c0.304,-1.131 0.219,-1.907 -0.166,-2.84c-0.192,-0.463 -0.504,-0.958 -0.902,-1.444c-0.203,-0.242 -0.424,-0.483 -0.659,-0.703l-0.349,-0.31l-0.157,-0.123c-0.023,-0.02 -0.144,-0.103 -0.003,0l1.851,0.856c-8.005,-2.352 -14.841,-5.813 -21.607,-9.405c-6.726,-3.625 -13.193,-7.539 -19.549,-11.591c-6.355,-4.051 -12.58,-8.261 -18.727,-12.575c-3.073,-2.162 -6.122,-4.35 -9.152,-6.579l-4.532,-3.389l-2.265,-1.743l-1.155,-0.915l-0.62,-0.509l-0.358,-0.303c-0.221,-0.198 -0.436,-0.404 -0.646,-0.618c-1.793,-1.952 -1.665,-4.988 0.286,-6.782c1.954,-1.795 4.991,-1.667 6.786,0.286" style="fill:#44194f;fill-rule:nonzero;"/><path d="M298.959,465.305c-11.818,0 -25.636,-3.057 -41.349,-9.163l4.327,-11.132c23.867,9.277 42.796,10.831 54.744,4.499c9.095,-4.818 11.12,-12.674 11.138,-12.752l11.64,2.671c-0.122,0.534 -3.172,13.21 -17.183,20.635c-6.596,3.495 -14.386,5.242 -23.317,5.242" style="fill:#44194f;fill-rule:nonzero;"/><path d="M530.199,388.454c-12.653,4.51 -25.413,8.841 -37.831,13.549c-3.105,1.171 -6.164,2.427 -9.186,3.675c-3.016,1.248 -5.986,2.562 -8.746,3.983c-1.373,0.71 -2.701,1.453 -3.834,2.204l-0.828,0.549l-0.694,0.521c-0.476,0.389 -0.976,0.821 -1.4,1.247c-1.765,1.716 -2.794,3.595 -3.004,5.137c-0.199,1.531 0.255,2.836 1.161,3.844c0.467,0.485 1.033,0.86 1.647,1.072c0.31,0.118 0.622,0.166 0.969,0.207c0.18,0.005 0.345,0.032 0.705,0.019c0.301,0.002 0.616,0.002 0.994,-0.023c2.893,-0.144 6.26,-0.472 9.499,-0.856l9.891,-1.272c13.252,-1.787 26.611,-3.686 40.035,-5.08l0.025,-0.002c2.073,-0.215 3.927,1.291 4.142,3.364c0.192,1.836 -0.972,3.502 -2.682,4.006c-13.048,3.863 -26.212,6.977 -39.593,9.562c-3.342,0.679 -6.715,1.218 -10.123,1.765c-1.706,0.265 -3.415,0.52 -5.167,0.744c-1.754,0.232 -3.506,0.436 -5.456,0.524c-0.465,0.032 -0.993,0.042 -1.535,0.046c-0.484,0.018 -1.161,-0.011 -1.823,-0.055c-1.328,-0.116 -2.691,-0.369 -3.976,-0.812c-2.586,-0.86 -4.932,-2.36 -6.815,-4.299c-1.867,-1.948 -3.297,-4.335 -4.059,-6.93c-0.775,-2.591 -0.88,-5.342 -0.451,-7.897c0.452,-2.55 1.398,-4.905 2.625,-6.917c1.227,-2.018 2.696,-3.734 4.254,-5.214c0.787,-0.748 1.572,-1.408 2.419,-2.067l1.35,-0.969c0.442,-0.294 0.864,-0.548 1.302,-0.815c1.734,-1.031 3.399,-1.854 5.06,-2.62c6.612,-3.004 13.12,-5.187 19.712,-7.17c13.16,-3.917 26.368,-7.005 39.841,-9.256c1.757,-0.294 3.418,0.892 3.712,2.65c0.264,1.567 -0.652,3.057 -2.097,3.57l-0.043,0.016Z" style="fill:#44194f;fill-rule:nonzero;"/><path d="M378.648,303.257c0,0 36.591,22.452 57.702,14.831c21.112,-7.621 36.824,-32.544 36.824,-32.544l-67.83,-16.941c0,0 -11.483,26.827 -26.696,34.654" style="fill:#d87d21;fill-rule:nonzero;"/><path d="M508.475,460.883c-2.343,0 -4.788,-0.149 -7.347,-0.47c-1.485,-0.214 -33.781,-5.132 -33.925,-28.13l11.942,-0.076c0.078,12.551 23.353,16.337 23.586,16.372c32.692,4.085 39.175,-27.432 39.437,-28.776l0.187,-0.979l0.502,-0.885c0.178,-0.312 17.991,-32.06 0.628,-48.743c-15.468,-14.864 -55.366,-12.701 -69.433,-10.617l-1.759,-11.813c2.301,-0.345 56.604,-8.15 79.469,13.818c22.367,21.491 5.265,56.231 1.947,62.406c-3.025,14.243 -15.932,37.891 -45.234,37.893" style="fill:#44194f;fill-rule:nonzero;"/><path d="M480.944,353.668c-5.602,-11.871 -12.938,-23.623 -15.7,-25.149c-2.724,-1.302 -6.656,-1.97 -9.459,0.105c-3.452,2.558 -4.677,9.019 -3.352,17.726l-11.809,1.793c-2.612,-17.201 2.938,-25.328 8.053,-29.117c5.912,-4.376 14.243,-4.859 21.749,-1.266c7.916,3.789 17.547,22.812 21.319,30.814l-10.801,5.094Z" style="fill:#44194f;fill-rule:nonzero;"/><path d="M331.547,487.22c-32.384,0 -44.743,-24.353 -44.882,-24.64l11.097,-5.436l-5.548,2.719l5.53,-2.757c0.508,0.999 12.831,24.364 48.513,15.915c1.451,-0.425 19.435,-5.859 35.524,-18.08l1.66,-1.257l55.216,0l1.829,1.921c0.13,0.134 14.414,14.744 34.325,14.744c31.639,0 38.067,-17.11 38.325,-17.838l11.736,3.874c-0.347,1.074 -8.958,26.323 -50.061,26.323c-20.684,0 -35.972,-11.893 -41.276,-16.668l-45.968,0c-18.157,13.247 -37.249,18.68 -38.077,18.912l-0.228,0.058c-6.476,1.546 -12.368,2.21 -17.715,2.21" style="fill:#44194f;fill-rule:nonzero;"/><path d="M143.147,448.341c-53.82,-30.885 -41.427,-87.716 -36.347,-104.399c0.899,-2.952 3.202,-5.228 6.156,-6.091c3.003,-0.878 6.226,-0.18 8.619,1.866c10.867,9.275 35.648,8.997 44.28,8.111l1.236,11.88c-1.385,0.142 -32.138,3.191 -49.958,-8.442c-5.427,20.543 -10.11,62.576 31.958,86.715l-5.944,10.36Z" style="fill:#44194f;fill-rule:nonzero;"/><path d="M249.897,501.055l-6.216,-10.682c4.088,-2.381 40.531,-23.255 60.816,-23.392l0.085,12.357c-14.403,0.098 -44.36,15.709 -54.685,21.717" style="fill:#44194f;fill-rule:nonzero;"/><path d="M415.12,205.54c-5.703,16.048 -18.945,26.006 -29.588,22.229c-10.646,-3.763 -14.661,-19.84 -8.972,-35.904c1.269,-3.583 2.911,-6.852 4.822,-9.747l15.48,6.447l-7.315,-15.286c5.33,-4.001 11.288,-5.524 16.585,-3.643c10.659,3.778 14.676,19.841 8.988,35.904" style="fill:#44194f;fill-rule:nonzero;"/><path d="M495.317,221.887c-2.388,13.153 -11.121,22.573 -19.496,21.05c-8.39,-1.538 -13.244,-13.422 -10.854,-26.559c0.881,-4.851 2.628,-9.195 4.912,-12.675l11.852,7.659l-3.686,-15.151c2.091,-0.942 4.268,-1.27 6.434,-0.882c8.376,1.537 13.242,13.421 10.838,26.558" style="fill:#44194f;fill-rule:nonzero;"/><path d="M406.226,295.025c-21.643,-13.851 -22.973,-42.287 -18.632,-44.055c10.422,-4.245 18.867,-1.843 38.167,-12.137c12.849,-6.853 14.489,-12.808 21.439,-7.019c6.946,5.789 19.462,23.098 19.462,23.098c0,0 26.703,2.619 27.975,9.181c1.273,6.561 -22.258,23.288 -44.257,25.989c0,0 -5.534,14.924 -20.201,15.696c-6.961,0.367 -15.814,-5.544 -23.953,-10.753" style="fill:#ed4f71;fill-rule:nonzero;"/><path d="M409.042,290.625l1.135,0.728c6.923,4.439 14.788,9.455 19.729,9.207c11.107,-0.584 15.53,-12.175 15.573,-12.293l1.106,-2.984l3.157,-0.387c17.843,-2.191 35.863,-14.341 39.255,-19.593c-3.325,-1.93 -13.374,-4.261 -22.845,-5.191l-2.345,-0.231l-1.379,-1.909c-3.377,-4.667 -13.294,-17.744 -18.573,-22.144c-1.218,-1.015 -1.725,-1.132 -1.729,-1.134c-0.557,0.102 -2.543,1.496 -4.14,2.616c-2.448,1.718 -5.495,3.857 -9.767,6.134c-12.873,6.864 -21.41,8.438 -28.268,9.703c-3.236,0.596 -6.092,1.121 -8.96,2.124c-0.948,5.132 1.581,24.814 18.051,35.354m20.509,20.395c-8.062,0 -16.675,-5.524 -25.015,-10.871l-1.127,-0.721c-18.554,-11.875 -23.903,-33.408 -22.919,-44.191c0.444,-4.836 2.169,-7.899 5.134,-9.106c4.352,-1.773 8.276,-2.496 12.432,-3.262c6.471,-1.193 13.803,-2.543 25.245,-8.645c3.709,-1.98 6.468,-3.914 8.681,-5.468c5.26,-3.69 10.699,-7.507 18.563,-0.955c6.015,5.011 15.423,17.384 18.959,22.155c18.802,2.101 28.978,6.52 30.262,13.142c0.514,2.648 -0.33,5.51 -2.509,8.508c-6.441,8.86 -25.367,20.128 -43.338,23.233c-2.742,5.189 -9.852,15.44 -23.465,16.158c-0.299,0.016 -0.602,0.023 -0.903,0.023" style="fill:#44194f;fill-rule:nonzero;"/><path d="M397.661,265.92c0,0 -5.016,-32.487 10.103,-34.627c15.121,-2.142 16.891,26.586 11.964,38.135l1.205,7.954l-23.272,-11.462Z" style="fill:#ff9fc4;fill-rule:nonzero;"/><path d="M392.159,251.455c2.963,4.98 6.559,9.522 10.808,13.345c2.09,1.941 4.345,3.7 6.686,5.315c2.333,1.631 4.788,3.084 7.309,4.4c5.032,2.653 10.383,4.694 15.844,6.259c2.733,0.778 5.502,1.428 8.278,1.95c1.387,0.256 2.778,0.488 4.158,0.669c0.691,0.096 1.384,0.18 2.062,0.248c0.648,0.069 1.421,0.139 1.891,0.153c3.435,0.096 6.138,2.959 6.042,6.392c-0.1,3.435 -2.962,6.138 -6.395,6.04c-0.265,-0.007 -0.528,-0.032 -0.785,-0.071l-0.208,-0.036c-1.015,-0.164 -1.724,-0.32 -2.552,-0.502c-0.801,-0.178 -1.585,-0.367 -2.363,-0.568c-1.559,-0.393 -3.093,-0.833 -4.611,-1.302c-3.038,-0.943 -6.019,-2.017 -8.941,-3.228c-5.837,-2.428 -11.467,-5.361 -16.686,-8.933c-5.222,-3.545 -10.057,-7.71 -14.173,-12.484c-4.165,-4.727 -7.506,-10.13 -10.038,-15.796c-0.463,-1.038 0.002,-2.256 1.04,-2.72c0.965,-0.429 2.083,-0.059 2.609,0.828l0.025,0.041Z" style="fill:#44194f;fill-rule:nonzero;"/><path d="M466.767,260.769c-2.02,-0.134 -4.254,-0.178 -6.391,-0.18c-2.158,0.004 -4.309,0.07 -6.448,0.207c-2.133,0.14 -4.236,0.381 -6.269,0.749c-2.021,0.36 -4.008,0.949 -5.36,1.802l-0.283,0.178c-0.943,0.595 -2.188,0.314 -2.783,-0.63c-0.484,-0.767 -0.384,-1.741 0.182,-2.395c1.916,-2.211 4.133,-3.422 6.287,-4.521c2.176,-1.072 4.384,-1.969 6.601,-2.758c2.218,-0.783 4.451,-1.487 6.697,-2.128c2.266,-0.636 4.453,-1.211 6.867,-1.731l0.068,-0.014c3.121,-0.669 6.197,1.318 6.866,4.439c0.671,3.122 -1.318,6.195 -4.439,6.866c-0.527,0.114 -1.083,0.148 -1.595,0.116" style="fill:#44194f;fill-rule:nonzero;"/><path d="M396.236,266.81c-1.068,-1.817 -1.871,-3.497 -2.651,-5.328c-0.766,-1.807 -1.472,-3.663 -2.005,-5.611c-0.548,-1.944 -0.983,-3.965 -1.187,-6.103c-0.203,-2.134 -0.232,-4.399 0.229,-6.776c0.451,-2.364 1.418,-4.898 3.106,-7.085c1.684,-2.186 4.013,-3.837 6.33,-4.839c1.182,-0.511 2.295,-0.887 3.52,-1.168c1.268,-0.28 2.598,-0.465 3.967,-0.437c2.726,0.016 5.534,0.77 7.842,2.089c2.325,1.307 4.215,3.032 5.712,4.881c1.505,1.851 2.664,3.819 3.604,5.813c1.903,3.991 2.822,8.114 3.369,12.178c1.041,8.148 0.151,16.198 -1.937,23.785c-0.782,2.845 -3.724,4.517 -6.567,3.736c-2.735,-0.753 -4.384,-3.496 -3.818,-6.232l0.016,-0.075c1.385,-6.606 1.914,-13.369 1.108,-19.763c-0.417,-3.177 -1.225,-6.254 -2.402,-8.912c-1.165,-2.664 -2.858,-4.822 -4.548,-5.872c-1.706,-1.022 -3.317,-1.119 -5.803,-0.292c-1.06,0.388 -1.832,0.89 -2.441,1.563c-0.625,0.661 -1.147,1.574 -1.491,2.774c-0.708,2.413 -0.651,5.65 -0.188,8.889c0.247,1.627 0.559,3.292 0.963,4.95c0.404,1.631 0.924,3.365 1.403,4.866l0.064,0.198c0.575,1.797 -0.416,3.718 -2.213,4.291c-1.549,0.497 -3.193,-0.174 -3.982,-1.52" style="fill:#44194f;fill-rule:nonzero;"/><path d="M225.049,511.251c15.197,-0.308 27.934,-11.686 30.863,-26.602c5.216,-26.57 16.709,-77.859 1.597,-93.213c-9.597,-9.752 -18.961,-4.458 -25.916,3.252c-6.553,7.263 -17.322,8.377 -25.23,2.617c-6.258,-4.56 -14.111,-7.35 -22.387,-3.089c-6.384,3.289 -9.434,8.86 -10.789,14.376c-1.841,7.482 -8.566,12.546 -16.269,12.737c-7.001,0.173 -13.659,3.73 -13.725,16.606c-0.089,17.662 35.792,74.246 81.856,73.316" style="fill:#f55944;fill-rule:nonzero;"/><path d="M161.735,420.533c0,0 20.238,63.204 62.257,56.258c42.02,-6.95 37.062,-56.851 37.062,-56.851c0,0 8.708,73.843 -27.13,86.201c-35.84,12.359 -80.022,-24.468 -88.672,-66.766c0,0 2.721,-25.434 16.483,-18.842" style="fill:#e03f35;fill-rule:nonzero;"/><path d="M192.304,398.077c-2.783,0 -4.669,0.97 -5.593,1.446c-3.964,2.044 -6.492,5.477 -7.725,10.493c-2.441,9.918 -11.456,17.026 -21.922,17.282c-3.797,0.095 -7.851,1.003 -7.899,10.668c-0.037,7.363 9.4,27.366 26.561,44.271c10.912,10.744 28.237,23.491 49.202,23.045c12.127,-0.248 22.694,-9.407 25.124,-21.784c0.338,-1.724 0.703,-3.551 1.086,-5.465c4.553,-22.818 14.031,-70.3 2.114,-82.408c-2.37,-2.409 -4.607,-3.616 -6.788,-3.51c-3.009,0.063 -6.618,2.338 -10.438,6.573c-8.568,9.499 -22.831,10.981 -33.178,3.443c-4.318,-3.144 -7.852,-4.054 -10.544,-4.054m31.6,119.158c-24.478,0.002 -44.223,-14.341 -56.557,-26.489c-16.959,-16.703 -30.19,-39.913 -30.125,-52.842c0.1,-19.916 13.704,-22.402 19.548,-22.546c5.176,-0.127 9.444,-3.421 10.618,-8.193c2.049,-8.331 6.839,-14.644 13.854,-18.256c6.345,-3.268 16.46,-5.3 28.638,3.568c5.477,3.994 12.744,3.239 17.279,-1.79c6.166,-6.835 12.573,-10.373 19.045,-10.514c5.554,-0.13 10.824,2.259 15.561,7.074c15.092,15.335 8.81,54.412 1.084,93.126c-0.379,1.9 -0.74,3.714 -1.077,5.425c-3.504,17.851 -18.898,31.065 -36.602,31.422c-0.422,0.009 -0.848,0.015 -1.266,0.015" style="fill:#44194f;fill-rule:nonzero;"/><path d="M304.56,204.071c0,0 85.688,19.717 86.818,64.374c0.46,18.164 -10.683,34.672 -26.931,40.99c-5.693,2.215 -12.758,4.022 -21.471,4.888" style="fill:#fa5;fill-rule:nonzero;"/><path d="M305.17,201.418c7.933,1.586 15.577,3.687 23.198,6.175c7.596,2.505 15.099,5.386 22.391,8.853c7.304,3.431 14.41,7.448 21.075,12.32c6.64,4.874 12.902,10.685 17.632,18.023c2.339,3.668 4.262,7.712 5.478,12.037c1.231,4.3 1.639,8.944 1.4,13.283c-0.472,8.789 -3.367,17.441 -8.374,24.672c-4.984,7.231 -12.162,12.99 -20.347,16.097c-8.052,2.942 -16.269,4.056 -24.405,3.866c-1.353,-0.032 -2.423,-1.156 -2.393,-2.509c0.028,-1.138 0.826,-2.076 1.885,-2.326l0.027,-0.007c7.514,-1.771 14.897,-3.926 21.389,-7.086c6.271,-3.181 11.634,-7.946 15.505,-13.74c3.923,-5.755 6.295,-12.564 6.681,-19.51c0.203,-3.523 -0.116,-6.821 -0.96,-10.126c-0.861,-3.282 -2.286,-6.455 -4.127,-9.458c-3.732,-6.001 -9.053,-11.254 -14.93,-15.883c-5.93,-4.605 -12.475,-8.587 -19.259,-12.182c-13.62,-7.083 -28.284,-12.774 -43.087,-17.193l-0.091,-0.027c-1.441,-0.431 -2.26,-1.948 -1.831,-3.388c0.406,-1.355 1.783,-2.158 3.143,-1.891" style="fill:#44194f;fill-rule:nonzero;"/><path d="M375.038,270.726c-3.325,15.135 -28.894,22.378 -57.109,16.18c-28.218,-6.198 -48.395,-23.491 -45.071,-38.627c3.324,-15.135 28.894,-22.38 57.109,-16.18c28.217,6.198 48.395,23.492 45.071,38.627" style="fill:#fd9544;fill-rule:nonzero;"/><path d="M434.954,282.346c24.717,0 34.214,-12.205 34.214,-12.205c0,0 -2.081,9.115 -2.236,13.595c-0.155,4.48 -31.978,-1.39 -31.978,-1.39" style="fill:#44194f;fill-rule:nonzero;"/><path d="M195.609,438.519c0,0 4.571,23.642 28.383,24.614" style="fill:#db543e;fill-rule:nonzero;"/><path d="M197.561,438.142c1.574,2.705 3.21,5.506 5,7.936c1.773,2.475 3.718,4.69 5.849,6.61c1.031,1.013 2.217,1.795 3.337,2.696c1.232,0.714 2.386,1.606 3.727,2.208c1.271,0.749 2.665,1.298 4.088,1.914c0.693,0.39 1.457,0.55 2.206,0.835c0.755,0.274 1.519,0.559 2.301,0.913l0.267,0.123c0.967,0.438 1.394,1.58 0.954,2.547c-0.265,0.58 -0.794,0.968 -1.374,1.089c-3.583,0.712 -7.466,0.753 -11.156,-0.397c-1.896,-0.422 -3.618,-1.346 -5.379,-2.188c-1.629,-1.053 -3.301,-2.1 -4.679,-3.469c-2.864,-2.616 -5.12,-5.799 -6.66,-9.207c-1.488,-3.464 -2.441,-6.975 -2.384,-10.855c0.016,-1.116 0.935,-2.007 2.049,-1.991c0.734,0.011 1.371,0.41 1.717,0.999l0.137,0.237Z" style="fill:#44194f;fill-rule:nonzero;"/><path d="M433.864,371.067c1.937,6.344 -0.542,12.598 -5.534,13.967c-4.997,1.368 -10.615,-2.665 -12.552,-9.01c-1.937,-6.344 0.54,-12.597 5.534,-13.967c4.995,-1.367 10.614,2.666 12.552,9.01" style="fill:#44194f;fill-rule:nonzero;"/><path d="M139.905,584.212c-18.24,-0.956 -29.243,33.12 -29.243,33.12c0,0 3.704,-25.305 -14.275,-31.129c-17.978,-5.822 -28.482,30.753 -28.482,30.753c-0.16,-9.918 -0.066,-19.503 0.078,-26.843c0.141,-7.147 -6.032,-12.783 -13.139,-11.997c-5.851,0.648 -10.338,5.496 -10.532,11.381l-1.831,55.808c-0.252,7.719 6.126,14.015 13.839,13.661c5.442,-0.248 10.164,-3.802 11.927,-8.957c4.334,-12.66 13.96,-31.753 20.448,-34.52c8.271,-3.526 10.114,19.919 15.728,22.229c5.614,2.309 12.363,-8.48 17.334,-12.112c3.172,-2.318 4.466,12.311 4.99,23.205c0.299,6.241 5.486,11.123 11.734,11.081c6.032,-0.041 11.032,-4.676 11.543,-10.689c1.753,-20.645 3.795,-64.261 -10.119,-64.991" style="fill:#44194f;fill-rule:nonzero;"/><path d="M191.658,634.869c-6.378,-3.436 2.714,-15.472 15.118,-24.49l5.812,17.193c0,0 -14.551,10.735 -20.93,7.297m32.995,-42.636c-3.454,-10.082 -15.917,-13.604 -24.132,-6.815c-16.735,13.827 -39.833,43.23 -39.364,61.493c0.739,28.798 55.264,-3.112 55.264,-3.112l2.636,5.497c2.382,4.973 8.173,7.295 13.331,5.348c5.374,-2.024 8.164,-7.953 6.303,-13.384l-14.038,-49.027Z" style="fill:#44194f;fill-rule:nonzero;"/><path d="M439.26,634.869c-6.379,-3.436 2.711,-15.472 15.115,-24.49l5.814,17.193c0,0 -14.553,10.735 -20.929,7.297m32.994,-42.636c-3.454,-10.082 -15.917,-13.604 -24.132,-6.815c-16.735,13.827 -39.832,43.23 -39.364,61.493c0.737,28.798 55.264,-3.112 55.264,-3.112l2.636,5.497c2.382,4.973 8.173,7.295 13.331,5.348c5.374,-2.024 8.164,-7.953 6.302,-13.384l-14.037,-49.027Z" style="fill:#44194f;fill-rule:nonzero;"/><path d="M284.332,583.687c-17.659,1.211 -20.298,21.499 -21.921,31.645c-0.047,-5.302 0.172,-16.385 0.352,-24.268c0.109,-4.829 -3.834,-8.766 -8.663,-8.66c-4.702,0.105 -8.42,4.02 -8.281,8.724l1.807,61.369c0.103,3.477 2.961,6.237 6.441,6.22l8.123,-0.047c3.451,0.007 6.285,-2.713 6.415,-6.162c0.672,-17.86 2.897,-38.623 17.329,-36.553c10.429,1.498 11.366,18.536 10.723,30.41c-0.338,6.217 4.672,11.415 10.899,11.369c5.701,-0.041 10.42,-4.493 10.733,-10.189c1.462,-26.469 -3.062,-65.975 -33.957,-63.858" style="fill:#44194f;fill-rule:nonzero;"/><path d="M634.261,585.212c-16.486,1.186 -18.949,21.063 -20.462,31.002c-0.047,-5.146 0.156,-15.845 0.32,-23.555c0.107,-4.849 -3.568,-8.809 -8.075,-8.704c-4.391,0.103 -7.865,4.039 -7.729,8.768l1.675,59.743c0.1,3.493 2.769,6.267 6.019,6.249l7.583,-0.044c3.221,0.009 5.867,-2.726 5.994,-6.195c0.634,-17.459 2.738,-37.674 16.173,-35.651c9.653,1.453 10.593,17.874 10.025,29.49c-0.308,6.256 4.353,11.485 10.172,11.439c5.319,-0.041 9.728,-4.509 10.022,-10.224c1.322,-25.929 -2.965,-64.385 -31.717,-62.318" style="fill:#44194f;fill-rule:nonzero;"/><path d="M373.544,620.254c0,9.25 -7.421,17.095 -16.67,16.932c-2.975,-0.054 -5.668,-0.926 -7.364,-3.268c-4.904,-6.755 -1.427,-27.695 24.034,-24.928l0,11.264Zm15.593,-81.089l-4.295,0.535c-6.072,0.753 -10.666,5.859 -10.771,11.976l0.46,31.379c-41.305,-5.806 -62.348,39.373 -43.839,64.132c11.129,14.884 29.344,11.825 45.769,3.615c1.556,4.051 4.804,7.194 9.252,7.386l1.349,0.137c7.536,0.324 13.798,-5.753 13.699,-13.296l-1.266,-96.832c-0.072,-5.495 -4.904,-9.708 -10.358,-9.032" style="fill:#44194f;fill-rule:nonzero;"/><path d="M541.011,589.375c-21.112,-5.655 -28.621,16.063 -28.621,16.063l0,-13.465c0,-5.068 -4.11,-9.174 -9.176,-9.174l-2.042,0c-5.278,0 -9.466,4.439 -9.159,9.708l3.117,53.5c0.401,6.877 5.99,12.308 12.876,12.509c7.386,0.217 13.497,-5.63 13.673,-13.018c0.276,-11.597 2.135,-25.468 10.63,-29.873c4.45,-2.308 8.64,-0.953 12.043,1.469c3.707,2.639 8.885,0.037 9.182,-4.505l0.322,-4.884c0.549,-8.366 -4.745,-16.161 -12.845,-18.33" style="fill:#44194f;fill-rule:nonzero;"/><path d="M578.738,583.225l-5.166,-0.396c-6.187,-0.471 -11.447,4.463 -11.371,10.668l0.712,54.401c0.072,5.783 4.781,10.434 10.565,10.434c5.514,0 10.099,-4.239 10.532,-9.736l4.453,-54.007c0.46,-5.827 -3.899,-10.917 -9.725,-11.364" style="fill:#44194f;fill-rule:nonzero;"/><path d="M571.612,555.749c-7.297,3.242 -11.165,10.479 -8.64,16.161c2.527,5.685 10.49,7.663 17.787,4.421c7.293,-3.244 11.162,-10.479 8.636,-16.163c-2.525,-5.683 -10.486,-7.662 -17.783,-4.419" style="fill:#44194f;fill-rule:nonzero;"/></g></svg>