<svg viewBox="0 0 1412 686" version="1.1" xmlns="http://www.w3.org/2000/svg" xmlns:xlink="http://www.w3.org/1999/xlink">
    <defs>
        <linearGradient x1="100%" y1="0%" x2="0%" y2="32.8183084%" id="linearGradient-1">
            <stop stop-color="#FFFFFF" offset="0%"></stop>
            <stop stop-color="#000000" offset="100%"></stop>
        </linearGradient>
        <linearGradient x1="100%" y1="50%" x2="0%" y2="100%" id="linearGradient-2">
            <stop stop-color="#FFFFFF" offset="0%"></stop>
            <stop stop-color="#000000" offset="100%"></stop>
        </linearGradient>
    </defs>
    <g id="Page-1" stroke="none" stroke-width="1" fill="none" fill-rule="evenodd">
        <g id="Artboard" transform="translate(-4.000000, -4.000000)">
            <g id="Group-9-Copy" transform="translate(4.000000, 4.000000)">
                <path d="M310.715625,621.058594 L337.449023,621.058594 L331.955859,600.794922 C329.270299,590.540964 327.439263,582.647163 326.462695,577.113281 C325.486128,571.579399 324.875782,566.371118 324.63164,561.488281 L323.533008,561.488281 C323.288866,566.371118 322.67852,571.579399 321.701953,577.113281 C320.725386,582.647163 318.894349,590.540964 316.208789,600.794922 L310.715625,621.058594 Z M225.510547,686 L289.23125,507.289062 L360.764453,507.289062 L423.264453,686 L354.172656,686 L348.435351,663.539062 L299.973437,663.539062 L294.480273,686 L225.510547,686 Z M864.688671,621.058594 L891.42207,621.058594 L885.928905,600.794922 C883.243345,590.540964 881.412309,582.647163 880.435741,577.113281 C879.459174,571.579399 878.848829,566.371118 878.604687,561.488281 L877.506054,561.488281 C877.261912,566.371118 876.651567,571.579399 875.674999,577.113281 C874.698432,582.647163 872.867395,590.540964 870.181835,600.794922 L864.688671,621.058594 Z M779.483593,686 L843.204296,507.289062 L914.737499,507.289062 L977.237499,686 L908.145702,686 L902.408398,663.539062 L853.946484,663.539062 L848.45332,686 L779.483593,686 Z" id="MANDARIN" fill="#000000"></path>
                <path d="M180.053711,686 L172.241211,615.199219 C171.752927,609.746718 171.264651,604.314643 170.776367,598.902832 C170.288083,593.491021 169.881187,588.058947 169.555664,582.606445 C168.823239,587.733424 167.785651,593.165499 166.442871,598.902832 C165.100091,604.640165 163.452158,610.763965 161.499023,617.274414 L140.991211,686 L102.783203,686 L82.2753906,617.274414 C80.2408752,610.763965 78.5725977,604.640165 77.2705078,598.902832 C75.968418,593.165499 74.9511755,587.733424 74.21875,582.606445 C73.8118469,588.140327 73.3846051,593.592747 72.9370117,598.963867 C72.4894183,604.334988 72.0214868,609.746718 71.5332031,615.199219 L63.7207031,686 L0.732421875,686 L31.25,507.289062 L97.5341797,507.289062 L110.229492,551.478516 L112.060547,557.704102 C117.431667,576.340262 120.727533,591.680278 121.948242,603.724609 L123.046875,603.724609 C124.023442,596.156212 125.488271,588.099652 127.441406,579.554688 C129.394541,571.009723 131.998682,561.406954 135.253906,550.746094 L148.55957,507.289062 L214.72168,507.289062 L243.041992,686 L180.053711,686 Z M421.602148,686 L421.602148,507.289062 L484.590429,507.289062 L540.132421,600.794922 C539.399996,596.64451 538.891375,592.046575 538.606543,587.000977 C538.32171,581.955378 538.179296,575.363647 538.179296,567.225586 L538.179296,507.289062 L600.068945,507.289062 L600.068945,686 L536.592382,686 L481.660742,593.226562 C482.311787,597.214213 482.800063,601.506976 483.125586,606.10498 C483.451108,610.702985 483.613867,615.850232 483.613867,621.546875 L483.613867,686 L421.602148,686 Z M685.076562,631.43457 C699.562311,631.35319 710.141633,628.525256 716.814843,622.950684 C723.488054,617.376111 726.824609,608.648171 726.824609,596.766602 C726.824609,585.129174 723.630468,576.462268 717.242089,570.765625 C710.853711,565.068982 701.067839,562.220703 687.884179,562.220703 L685.076562,562.220703 L685.076562,631.43457 Z M621.355859,686 L621.355859,507.289062 L673.357812,507.289062 C689.878077,507.289062 703.977057,508.204581 715.655175,510.035645 C727.333293,511.866708 736.834338,514.694642 744.158593,518.519531 C759.62091,526.657593 771.481957,537.440363 779.742089,550.868164 C788.002222,564.295966 792.132226,579.595292 792.132226,596.766602 C792.132226,613.856531 788.022567,629.074478 779.803124,642.420898 C771.583682,655.767319 759.702291,666.550089 744.158593,674.769531 C736.590196,678.675801 726.987427,681.52408 715.349999,683.314453 C703.712571,685.104827 688.128417,686 668.59707,686 L621.355859,686 Z M1038.56348,553.30957 L1038.56348,588.22168 L1048.57324,588.22168 C1054.67679,588.22168 1059.37645,586.736506 1062.67236,583.766113 C1065.96828,580.795721 1067.61621,576.543647 1067.61621,571.009766 C1067.61621,565.313123 1065.96828,560.93898 1062.67236,557.887207 C1059.37645,554.835434 1054.67679,553.30957 1048.57324,553.30957 L1038.56348,553.30957 Z M975.575194,686 L975.575194,507.289062 L1056.38574,507.289062 C1079.82336,507.289062 1097.72683,512.456654 1110.09668,522.791992 C1122.46653,533.12733 1128.65137,548.01976 1128.65137,567.469727 C1128.65137,580.165103 1125.5386,590.622355 1119.31299,598.841797 C1113.08737,607.061239 1104.68495,611.862623 1094.10547,613.246094 L1141.83496,686 L1069.81348,686 L1038.56348,627.040039 L1038.56348,686 L975.575194,686 Z M1144.20098,686 L1144.20098,507.289062 L1209.50859,507.289062 L1209.50859,686 L1144.20098,686 Z M1232.62656,686 L1232.62656,507.289062 L1295.61484,507.289062 L1351.15683,600.794922 C1350.42441,596.64451 1349.91579,592.046575 1349.63096,587.000977 C1349.34612,581.955378 1349.20371,575.363647 1349.20371,567.225586 L1349.20371,507.289062 L1411.09336,507.289062 L1411.09336,686 L1347.6168,686 L1292.68515,593.226562 C1293.3362,597.214213 1293.82448,601.506976 1294.15,606.10498 C1294.47552,610.702985 1294.63828,615.850232 1294.63828,621.546875 L1294.63828,686 L1232.62656,686 Z" id="MANDARIN-Copy" fill="#000000"></path>
                <g id="Group" transform="translate(503.000000, 0.000000)">
                    <polygon id="Path-76" fill="url(#linearGradient-1)" points="200.691798 399.691798 0 199 200.91797 199"></polygon>
                    <polygon id="Path-77" fill="url(#linearGradient-2)" points="200.926739 399.715571 400.321155 200.321155 200 -2.84217094e-14"></polygon>
                </g>
            </g>
        </g>
    </g>
</svg>
