<?xml version="1.0" encoding="UTF-8" standalone="no"?><!DOCTYPE svg PUBLIC "-//W3C//DTD SVG 1.1//EN" "http://www.w3.org/Graphics/SVG/1.1/DTD/svg11.dtd"><svg width="100%" height="100%" viewBox="0 0 450 450" version="1.1" xmlns="http://www.w3.org/2000/svg" xmlns:xlink="http://www.w3.org/1999/xlink" xml:space="preserve" style="fill-rule:evenodd;clip-rule:evenodd;stroke-linejoin:round;stroke-miterlimit:1.41421;"><g><path d="M477.684,377.854c10.112,8.046 24.854,6.369 32.9,-3.744c8.046,-10.112 6.368,-24.853 -3.744,-32.899l-49.414,-39.318c-10.112,-8.045 -24.854,-6.368 -32.9,3.744c-8.045,10.112 -6.368,24.854 3.744,32.9l49.414,39.317Z" style="fill:url(#_Linear1);"/><path d="M18.363,185.321c12.551,3.074 25.237,-4.621 28.311,-17.172c3.074,-12.552 -4.621,-25.238 -17.172,-28.312l-61.335,-15.021c-12.552,-3.073 -25.237,4.621 -28.311,17.173c-3.074,12.551 4.62,25.237 17.172,28.311l61.335,15.021Z" style="fill:url(#_Linear2);"/><path d="M129.525,213.418c-10.866,-6.994 -25.367,-3.85 -32.361,7.016c-6.993,10.866 -3.85,25.367 7.016,32.361l53.1,34.177c10.866,6.994 25.366,3.85 32.36,-7.016c6.994,-10.867 3.85,-25.367 -7.016,-32.361l-53.099,-34.177Z" style="fill:url(#_Linear3);"/><path d="M134.895,54.266c8.883,-9.385 8.476,-24.216 -0.909,-33.099c-9.384,-8.884 -24.216,-8.477 -33.099,0.908l-43.41,45.86c-8.884,9.385 -8.477,24.216 0.908,33.1c9.385,8.883 24.216,8.476 33.1,-0.909l43.41,-45.86Z" style="fill:url(#_Linear4);"/><path d="M349.274,40.316c5.939,-11.476 1.443,-25.616 -10.034,-31.555c-11.476,-5.939 -25.616,-1.443 -31.555,10.033l-29.023,56.083c-5.939,11.477 -1.443,25.616 10.033,31.555c11.477,5.94 25.616,1.444 31.556,-10.033l29.023,-56.083Z" style="fill:url(#_Linear5);"/><path d="M221.726,99.134c-6.164,-11.357 -20.39,-15.573 -31.747,-9.408c-11.357,6.165 -15.573,20.391 -9.408,31.748l30.126,55.498c6.165,11.357 20.39,15.572 31.747,9.408c11.357,-6.165 15.573,-20.391 9.408,-31.748l-30.126,-55.498Z" style="fill:url(#_Linear6);"/><path d="M357.31,277.402c12.913,-0.492 22.998,-11.375 22.506,-24.288c-0.492,-12.913 -11.374,-22.998 -24.287,-22.506l-63.102,2.402c-12.913,0.491 -22.998,11.374 -22.506,24.287c0.491,12.913 11.374,22.998 24.287,22.506l63.102,-2.401Z" style="fill:url(#_Linear7);"/><path d="M27.684,377.854c10.112,8.046 24.854,6.369 32.9,-3.744c8.046,-10.112 6.368,-24.853 -3.744,-32.899l-49.414,-39.318c-10.112,-8.045 -24.854,-6.368 -32.9,3.744c-8.045,10.112 -6.368,24.854 3.744,32.9l49.414,39.317Z" style="fill:url(#_Linear8);"/><path d="M198,394.477c11.468,-5.956 15.943,-20.102 9.988,-31.57c-5.956,-11.468 -20.102,-15.944 -31.57,-9.988l-56.041,29.103c-11.468,5.956 -15.944,20.102 -9.988,31.57c5.956,11.468 20.102,15.944 31.57,9.988l56.041,-29.103Z" style="fill:url(#_Linear9);"/><path d="M309.236,406.298c8.54,9.698 23.348,10.637 33.045,2.096c9.698,-8.54 10.638,-23.347 2.097,-33.045l-41.735,-47.39c-8.54,-9.698 -23.348,-10.637 -33.045,-2.097c-9.698,8.541 -10.638,23.348 -2.097,33.046l41.735,47.39Z" style="fill:url(#_Linear10);"/><path d="M467.007,184.965c12.552,3.074 25.238,-4.62 28.312,-17.172c3.073,-12.551 -4.621,-25.237 -17.173,-28.311l-61.335,-15.021c-12.551,-3.074 -25.237,4.621 -28.311,17.172c-3.074,12.552 4.621,25.237 17.172,28.311l61.335,15.021Z" style="fill:url(#_Linear11);"/></g><defs><linearGradient id="_Linear1" x1="0" y1="0" x2="1" y2="0" gradientUnits="userSpaceOnUse" gradientTransform="matrix(62.4205,84.3389,-84.3389,62.4205,435.282,294.638)"><stop offset="0" style="stop-color:#fff;stop-opacity:1"/><stop offset="1" style="stop-color:#fff;stop-opacity:0"/></linearGradient><linearGradient id="_Linear2" x1="0" y1="0" x2="1" y2="0" gradientUnits="userSpaceOnUse" gradientTransform="matrix(88.8415,46.5247,-46.5247,88.8415,-49.4107,130.62)"><stop offset="0" style="stop-color:#fff;stop-opacity:1"/><stop offset="1" style="stop-color:#fff;stop-opacity:0"/></linearGradient><linearGradient id="_Linear3" x1="0" y1="0" x2="1" y2="0" gradientUnits="userSpaceOnUse" gradientTransform="matrix(-55.4142,-83.5651,83.5651,-55.4142,173.599,289.759)"><stop offset="0" style="stop-color:#fff;stop-opacity:1"/><stop offset="1" style="stop-color:#fff;stop-opacity:0"/></linearGradient><linearGradient id="_Linear4" x1="0" y1="0" x2="1" y2="0" gradientUnits="userSpaceOnUse" gradientTransform="matrix(-42.3878,93.8855,-93.8855,-42.3878,114.594,13.6227)"><stop offset="0" style="stop-color:#fff;stop-opacity:1"/><stop offset="1" style="stop-color:#fff;stop-opacity:0"/></linearGradient><linearGradient id="_Linear5" x1="0" y1="0" x2="1" y2="0" gradientUnits="userSpaceOnUse" gradientTransform="matrix(63.4599,-81.1496,81.1496,63.4599,282.482,97.6218)"><stop offset="0" style="stop-color:#fff;stop-opacity:1"/><stop offset="1" style="stop-color:#fff;stop-opacity:0"/></linearGradient><linearGradient id="_Linear6" x1="0" y1="0" x2="1" y2="0" gradientUnits="userSpaceOnUse" gradientTransform="matrix(61.5873,85.4997,-85.4997,61.5873,184.283,95.2189)"><stop offset="0" style="stop-color:#fff;stop-opacity:1"/><stop offset="1" style="stop-color:#fff;stop-opacity:0"/></linearGradient><linearGradient id="_Linear7" x1="0" y1="0" x2="1" y2="0" gradientUnits="userSpaceOnUse" gradientTransform="matrix(102.316,23.2572,-23.2572,102.316,270.906,241.945)"><stop offset="0" style="stop-color:#fff;stop-opacity:1"/><stop offset="1" style="stop-color:#fff;stop-opacity:0"/></linearGradient><linearGradient id="_Linear8" x1="0" y1="0" x2="1" y2="0" gradientUnits="userSpaceOnUse" gradientTransform="matrix(62.4205,84.3389,-84.3389,62.4205,-14.718,294.638)"><stop offset="0" style="stop-color:#fff;stop-opacity:1"/><stop offset="1" style="stop-color:#fff;stop-opacity:0"/></linearGradient><linearGradient id="_Linear9" x1="0" y1="0" x2="1" y2="0" gradientUnits="userSpaceOnUse" gradientTransform="matrix(100.917,-29.0559,29.0559,100.917,108.946,401.004)"><stop offset="0" style="stop-color:#fff;stop-opacity:1"/><stop offset="1" style="stop-color:#fff;stop-opacity:0"/></linearGradient><linearGradient id="_Linear10" x1="0" y1="0" x2="1" y2="0" gradientUnits="userSpaceOnUse" gradientTransform="matrix(46.292,88.963,-88.963,46.292,284.904,322.671)"><stop offset="0" style="stop-color:#fff;stop-opacity:1"/><stop offset="1" style="stop-color:#fff;stop-opacity:0"/></linearGradient><linearGradient id="_Linear11" x1="0" y1="0" x2="1" y2="0" gradientUnits="userSpaceOnUse" gradientTransform="matrix(88.8415,46.5247,-46.5247,88.8415,399.234,130.264)"><stop offset="0" style="stop-color:#fff;stop-opacity:1"/><stop offset="1" style="stop-color:#fff;stop-opacity:0"/></linearGradient></defs></svg>