<?xml version="1.0" encoding="UTF-8" standalone="no"?><!DOCTYPE svg PUBLIC "-//W3C//DTD SVG 1.1//EN" "http://www.w3.org/Graphics/SVG/1.1/DTD/svg11.dtd"><svg width="100%" height="100%" viewBox="0 0 450 450" version="1.1" xmlns="http://www.w3.org/2000/svg" xmlns:xlink="http://www.w3.org/1999/xlink" xml:space="preserve" style="fill-rule:evenodd;clip-rule:evenodd;stroke-linejoin:round;stroke-miterlimit:1.41421;"><rect x="0.244" y="0.217" width="449.347" height="449.347" style="fill:none;"/><clipPath id="_clip1"><rect x="0.244" y="0.217" width="449.347" height="449.347"/></clipPath><g clip-path="url(#_clip1)"><path d="M155.565,126.294c-10.866,-6.994 -25.366,-3.85 -32.36,7.016c-6.994,10.866 -3.851,25.366 7.016,32.36l53.099,34.177c10.866,6.994 25.366,3.85 32.36,-7.016c6.994,-10.866 3.85,-25.366 -7.016,-32.36l-53.099,-34.177Z" style="fill:#fff;"/><path d="M130.714,84.498c8.883,-9.385 8.476,-24.216 -0.908,-33.1c-9.385,-8.883 -24.217,-8.476 -33.1,0.909l-43.41,45.86c-8.884,9.385 -8.477,24.216 0.908,33.1c9.385,8.883 24.216,8.476 33.1,-0.909l43.41,-45.86Z" style="fill:#fff;"/><path d="M348.517,40.705c5.94,-11.476 1.444,-25.616 -10.033,-31.555c-11.476,-5.939 -25.616,-1.443 -31.555,10.033l-29.023,56.083c-5.939,11.477 -1.443,25.616 10.033,31.555c11.477,5.94 25.616,1.444 31.556,-10.033l29.022,-56.083Z" style="fill:#fff;"/><path d="M243.142,64.591c-6.165,-11.357 -20.391,-15.572 -31.748,-9.407c-11.357,6.165 -15.572,20.39 -9.407,31.747l30.125,55.499c6.165,11.357 20.391,15.572 31.748,9.407c11.357,-6.165 15.572,-20.39 9.407,-31.747l-30.125,-55.499Z" style="fill:#fff;"/><path d="M424.156,75.894c-9.368,-8.901 -24.2,-8.523 -33.102,0.845c-8.901,9.368 -8.522,24.2 0.845,33.101l45.777,43.498c9.368,8.902 24.2,8.523 33.101,-0.844c8.902,-9.368 8.523,-24.2 -0.845,-33.102l-45.776,-43.498Z" style="fill:#fff;"/><path d="M372.541,275.838c12.437,-3.508 19.686,-16.454 16.178,-28.891c-3.508,-12.437 -16.454,-19.686 -28.891,-16.178l-60.776,17.143c-12.437,3.508 -19.686,16.454 -16.178,28.891c3.508,12.437 16.454,19.686 28.891,16.178l60.776,-17.143Z" style="fill:#fff;"/><path d="M162.891,300.881c7.603,-10.448 5.293,-25.104 -5.156,-32.708c-10.449,-7.603 -25.105,-5.293 -32.708,5.156l-37.155,51.06c-7.603,10.449 -5.293,25.105 5.156,32.708c10.448,7.603 25.104,5.293 32.708,-5.156l37.155,-51.06Z" style="fill:#fff;"/><path d="M19.054,225.127c-8.17,-10.012 -22.931,-11.508 -32.943,-3.338c-10.012,8.169 -11.508,22.931 -3.338,32.943l39.922,48.926c8.17,10.012 22.932,11.508 32.944,3.338c10.012,-8.169 11.508,-22.931 3.338,-32.943l-39.923,-48.926Z" style="fill:#fff;"/><path d="M197.244,394.866c11.468,-5.956 15.943,-20.102 9.988,-31.57c-5.956,-11.468 -20.102,-15.944 -31.57,-9.988l-56.041,29.103c-11.468,5.956 -15.944,20.102 -9.988,31.57c5.956,11.468 20.102,15.944 31.57,9.988l56.041,-29.103Z" style="fill:#fff;"/><path d="M308.48,406.687c8.54,9.698 23.348,10.637 33.045,2.096c9.698,-8.54 10.638,-23.347 2.097,-33.045l-41.735,-47.39c-8.54,-9.698 -23.348,-10.637 -33.046,-2.097c-9.697,8.541 -10.637,23.348 -2.096,33.046l41.735,47.39Z" style="fill:#fff;"/><path d="M-25.191,75.894c-9.368,-8.901 -24.2,-8.523 -33.102,0.845c-8.901,9.368 -8.523,24.2 0.845,33.101l45.777,43.498c9.368,8.902 24.2,8.523 33.101,-0.844c8.902,-9.368 8.523,-24.2 -0.845,-33.102l-45.776,-43.498Z" style="fill:#fff;"/><path d="M468.401,225.127c-8.169,-10.012 -22.931,-11.508 -32.943,-3.338c-10.012,8.169 -11.508,22.931 -3.338,32.943l39.922,48.926c8.17,10.012 22.932,11.508 32.944,3.338c10.012,-8.169 11.508,-22.931 3.338,-32.943l-39.923,-48.926Z" style="fill:#fff;"/></g></svg>