<?xml version="1.0" encoding="UTF-8" standalone="no"?><!DOCTYPE svg PUBLIC "-//W3C//DTD SVG 1.1//EN" "http://www.w3.org/Graphics/SVG/1.1/DTD/svg11.dtd"><svg width="100%" height="100%" viewBox="0 0 246 246" version="1.1" xmlns="http://www.w3.org/2000/svg" xmlns:xlink="http://www.w3.org/1999/xlink" xml:space="preserve" style="fill-rule:evenodd;clip-rule:evenodd;stroke-linejoin:round;stroke-miterlimit:1.41421;"><g id="BAMA"><g><path d="M50.527,137.81c1.39,-15.907 -6.52,-26.113 -19.226,-26.113c-4.702,0 -7.573,0.8 -10.179,2.001l2.267,-25.911l-15.608,0l-6.608,75.536c3.4,2.299 9.855,3.999 19.159,3.999c17.708,0 28.539,-10.604 30.195,-29.512Zm-15.495,1c-1.059,12.106 -5.074,19.109 -12.977,19.109c-1.901,0 -3.576,-0.299 -4.733,-0.8l3.091,-35.317c1.57,-0.8 3.206,-1.2 5.706,-1.2c8.305,0 9.831,7.702 8.913,18.208Z" style="fill:#fff;fill-rule:nonzero;"/><path d="M172.487,166.323l3.309,-37.817c0.359,-4.102 -1.761,-7.304 -7.165,-7.304c-2.701,0 -5.072,0.8 -7.029,2.6c0,0 -1.771,20.245 -2.72,31.077c-0.781,8.932 -5.825,11.444 -11.841,11.444c-3.392,0 -4.765,0 -4.765,0l3.324,-38.019c0.377,-4.301 -2.38,-7.102 -7.781,-7.102c-2.802,0 -4.427,0.301 -6.392,1.001l-3.86,44.12l-15.607,0l4.457,-50.924c6.238,-2.701 12.755,-4.002 22.158,-4.002c8.907,0 13.798,2.401 16.636,5.402c3.655,-2.9 9.376,-5.402 18.28,-5.402c12.806,0 18.743,7.605 17.912,17.109l-3.308,37.817l-15.608,0Z" style="fill:#fff;fill-rule:nonzero;"/><path d="M100.418,163.323l2.818,-32.216c1.278,-14.608 -7.28,-19.71 -19.486,-19.71c-7.669,0 -15.261,1.796 -21.207,4.306c1.066,4.404 5.27,7.238 9.174,6.575c2.803,-0.477 5.687,-1.177 8.283,-1.177c5.704,0 9.365,1.601 8.875,7.203l-0.22,2.502c-16.339,1.501 -30.602,5.603 -31.82,19.511c-0.98,11.205 6.516,17.005 22.124,17.005c9.302,0 16.746,-1.6 21.459,-3.999Zm-14.108,-5.703c-1.462,0.7 -3.498,1.099 -5.799,1.099c-6.203,0 -9.567,-2.702 -9.016,-9.003c0.752,-8.605 7.047,-10.806 16.531,-11.706l-1.716,19.61Z" style="fill:#fff;fill-rule:nonzero;"/><path d="M241.643,163.323l2.818,-32.216c1.278,-14.608 -7.282,-19.71 -19.485,-19.71c-7.67,0 -15.262,1.796 -21.209,4.306c1.068,4.404 5.27,7.238 9.173,6.575c2.806,-0.477 5.687,-1.177 8.283,-1.177c5.705,0 9.367,1.601 8.875,7.203l-0.219,2.502c-16.338,1.501 -30.602,5.603 -31.821,19.511c-0.98,11.205 6.518,17.005 22.124,17.005c9.303,0 16.749,-1.6 21.461,-3.999Zm-14.108,-5.703c-1.465,0.7 -3.5,1.099 -5.8,1.099c-6.202,0 -9.57,-2.702 -9.017,-9.003c0.752,-8.605 7.049,-10.806 16.531,-11.706l-1.714,19.61Z" style="fill:#fff;fill-rule:nonzero;"/><path d="M62.044,109.644c7.407,-6.95 21.542,-7.206 32.162,-6.38c14.398,1.12 26.522,-9.76 33.504,-24.826c-7.406,6.952 -21.543,7.206 -32.162,6.381c-14.398,-1.12 -26.521,9.759 -33.504,24.825Z" style="fill:#fff;fill-rule:nonzero;"/></g></g></svg>