<?xml version="1.0" encoding="UTF-8" standalone="no"?><!DOCTYPE svg PUBLIC "-//W3C//DTD SVG 1.1//EN" "http://www.w3.org/Graphics/SVG/1.1/DTD/svg11.dtd"><svg width="100%" height="100%" viewBox="0 0 246 246" version="1.1" xmlns="http://www.w3.org/2000/svg" xmlns:xlink="http://www.w3.org/1999/xlink" xml:space="preserve" style="fill-rule:evenodd;clip-rule:evenodd;stroke-linejoin:round;stroke-miterlimit:1.41421;"><g id="DN"><g><path d="M245.76,207.157l-245.76,0l0,-168.554l245.76,0l0,168.554Zm-9.842,-146.42l0,-4.257c-7.889,0.426 -14.501,0.641 -19.194,0.641c-4.688,0 -11.516,-0.215 -19.197,-0.641l0,4.257c13.655,0.426 15.786,6.811 15.786,28.092l0,61.505l-61.425,-93.854c-4.481,0.215 -24.102,0.426 -33.06,0l0,4.468c6.185,0.215 8.958,1.917 17.063,14.05l0,81.084c0,21.281 -2.135,27.455 -15.782,27.881l0,4.468c7.889,-0.426 14.716,-0.638 19.409,-0.638c4.689,0 11.301,0.212 18.982,0.638l0,-4.468c-13.651,-0.426 -15.786,-6.6 -15.786,-27.881l0,-70.868l68.679,104.066l8.747,0l0,-100.451c0,-21.281 2.127,-27.666 15.778,-28.092Zm-226.076,0c15.57,0.853 16.424,1.917 16.424,28.092l0,67.253c0,21.281 -0.215,27.455 -16.424,27.881l0,4.468c10.666,-0.426 21.755,-0.638 26.448,-0.638c4.693,0 17.913,0.423 29.218,0.423c37.965,0 53.108,-31.496 53.108,-68.313c0,-26.179 -11.093,-63.208 -50.55,-63.208c-2.706,0 -6.882,0.082 -11.241,0.173l-3.751,0.08c-4.36,0.092 -8.535,0.173 -11.241,0.173c-6.185,0 -23.887,-0.215 -31.991,-0.641l0,4.257Zm84.672,62.996c0,37.455 -13.009,58.739 -34.976,58.739c-1.708,0 -7.466,0 -9.812,-0.426c-0.216,-5.748 -0.216,-39.584 -0.216,-61.294c0,-21.07 0.427,-53.63 0.643,-58.098c3.839,-0.215 7.889,-0.215 10.024,-0.215c24.74,0 34.337,25.752 34.337,61.294Z" style="fill:#fff;"/></g></g></svg>