<?xml version="1.0" encoding="UTF-8" standalone="no"?><!DOCTYPE svg PUBLIC "-//W3C//DTD SVG 1.1//EN" "http://www.w3.org/Graphics/SVG/1.1/DTD/svg11.dtd"><svg width="100%" height="100%" viewBox="0 0 246 246" version="1.1" xmlns="http://www.w3.org/2000/svg" xmlns:xlink="http://www.w3.org/1999/xlink" xml:space="preserve" style="fill-rule:evenodd;clip-rule:evenodd;stroke-linejoin:round;stroke-miterlimit:1.41421;"><g id="Gyro"><g><path id="Fill.-1" d="M137.977,46.798l1.293,0.39c0.433,0.117 0.801,0.326 1.203,0.472c0.824,0.275 1.503,0.716 2.228,1.065c0.363,0.174 0.655,0.434 0.991,0.634c0.315,0.222 0.668,0.389 0.94,0.659c0.264,0.221 0.53,0.437 0.795,0.649l0.146,0.14l0.649,0.638c0.432,0.426 0.863,0.847 1.291,1.267c0.143,0.129 0.104,0.143 0.154,0.212l0.094,0.168l0.198,0.32c0.136,0.214 0.278,0.373 0.445,0.602l0.557,0.954c0.18,0.318 0.395,0.6 0.558,0.934c0.156,0.343 0.311,0.683 0.46,1.024c0.153,0.34 0.329,0.653 0.466,1.004c0.122,0.364 0.245,0.726 0.364,1.086c0.969,2.873 1.516,5.977 1.661,9.078c0.294,6.219 -0.634,12.125 -1.69,16.916c-0.478,2.406 -1.161,4.567 -1.652,6.438c-0.307,0.94 -0.579,1.81 -0.829,2.606l14.678,0.015c3.139,-17.587 0.433,-32.296 -9.381,-40.715c-4.596,-3.942 -10.362,-6.174 -16.937,-6.887c0.449,0.099 0.888,0.209 1.318,0.331Z" style="fill:#fff;fill-opacity:0.498039;"/><path id="Fill.-2" d="M79.683,171.734c-22.153,0 -30.711,-14.045 -30.711,-34.11c0,-18.917 10.65,-33.534 31.377,-33.534c8.081,0 13.691,1.433 18.445,4.013l-5.419,11.561c-2.092,-1.147 -5.134,-2.199 -10.65,-2.199c-9.698,0 -14.831,6.021 -14.831,20.448c0,14.138 3.707,20.731 10.553,20.731c1.616,0 2.661,-0.286 3.232,-0.572l0,-15.575l-6.084,0l0,-11.178l23.484,0l0,36.401c-4.373,2.581 -9.984,4.014 -19.396,4.014" style="fill:#fff;"/><path id="Fill.-3" d="M131.378,191.777l-18.92,0l8.082,-20.718l-16.45,-51.937l19.111,0l5.23,26.403c0.95,4.914 0.95,8.961 0.95,8.961l0.19,0c0,0 0.286,-4.047 1.427,-8.961l6.275,-26.403l16.924,0l-22.819,72.655" style="fill:#fff;"/><path id="Fill.-4" d="M188.649,131.968c-3.319,-1.63 -6.545,-1.727 -8.916,-0.863l0,40.629l-18.02,0l0,-48.679c5.976,-2.972 15.459,-4.504 30.064,-3.737l-3.128,12.65" style="fill:#fff;"/><path id="Fill.-5" d="M219.286,174.24c-16.039,0 -25.004,-11.637 -25.004,-27.609c0,-15.875 9.065,-27.509 25.004,-27.509c16.137,0 25.103,11.634 25.103,27.509c0,15.972 -9.065,27.609 -25.103,27.609Zm-1.202,-42.591c-5.171,0 -6.264,6.531 -6.264,15.176c0,8.741 1.193,14.888 6.264,14.888c5.169,0 6.262,-6.147 6.262,-14.888c0,-8.645 -1.093,-15.176 -6.262,-15.176Z" style="fill:#fff;"/><path id="Fill.-6" d="M162.276,42.182c-0.22,-0.25 -0.441,-0.5 -0.661,-0.747l-0.906,-0.987l-0.46,-0.49c-0.142,-0.144 -0.34,-0.366 -0.424,-0.427c-0.428,-0.374 -0.86,-0.75 -1.293,-1.129l-0.652,-0.569l-0.325,-0.285c0.08,0.068 -0.951,-0.826 -0.574,-0.491l-0.123,-0.088l-0.246,-0.178c-0.658,-0.466 -1.319,-0.935 -1.986,-1.406c-0.654,-0.487 -1.381,-0.857 -2.088,-1.27c-0.717,-0.389 -1.42,-0.831 -2.166,-1.162c-1.489,-0.662 -2.991,-1.369 -4.549,-1.83c-0.774,-0.243 -1.553,-0.541 -2.337,-0.721c-0.784,-0.184 -1.572,-0.367 -2.364,-0.552c-6.348,-1.323 -12.69,-1.084 -18.758,-0.137c-6.08,0.979 -11.888,2.821 -17.512,5.105c-5.62,2.301 -11.037,5.102 -16.276,8.263c-10.474,6.334 -20.25,14.089 -29.318,22.726c-4.54,4.315 -8.873,8.884 -13.015,13.631c-4.213,4.829 -8.06,9.64 -11.828,14.746c-7.447,10.172 -14.036,20.959 -19.429,32.133c-5.375,11.172 -9.583,22.754 -11.875,34.455c-1.137,5.847 -1.784,11.726 -1.738,17.535c0.015,5.799 0.893,11.561 2.728,16.916c1.009,2.65 2.13,5.245 3.718,7.552c0.189,0.292 0.367,0.591 0.565,0.875l0.636,0.826c0.434,0.547 0.822,1.099 1.291,1.627c0.979,1.037 1.981,2.148 2.908,2.866c4.114,3.519 8.957,5.645 13.657,6.719c0.589,0.138 1.174,0.275 1.756,0.411c0.588,0.098 1.176,0.163 1.759,0.243c1.166,0.131 2.31,0.367 3.455,0.363c1.138,0.043 2.263,0.084 3.374,0.125c1.106,-0.049 2.198,-0.1 3.275,-0.148c1.08,-0.016 2.128,-0.181 3.165,-0.302c1.035,-0.145 2.065,-0.22 3.059,-0.415c1.981,-0.422 3.931,-0.694 5.752,-1.24c7.356,-1.891 13.405,-4.54 18.235,-6.927c4.785,-2.485 8.404,-4.7 10.789,-6.293c2.381,-1.612 3.65,-2.472 3.65,-2.472l-3.125,0.02c-43.015,27.122 -61.001,4.706 -61.001,4.706c-31.259,-35.928 26.495,-106.883 28.729,-109.599c36.5,-40.285 81.777,-58.423 102.494,-40.515c9.605,8.304 12.268,22.947 8.927,40.426l0.491,0c6.996,-15.339 12.506,-36.429 0.616,-51.889" style="fill:#fff;"/></g></g></svg>