<?xml version="1.0" encoding="UTF-8" standalone="no"?><!DOCTYPE svg PUBLIC "-//W3C//DTD SVG 1.1//EN" "http://www.w3.org/Graphics/SVG/1.1/DTD/svg11.dtd"><svg width="100%" height="100%" viewBox="0 0 246 246" version="1.1" xmlns="http://www.w3.org/2000/svg" xmlns:xlink="http://www.w3.org/1999/xlink" xml:space="preserve" style="fill-rule:evenodd;clip-rule:evenodd;stroke-linejoin:round;stroke-miterlimit:1.41421;"><g id="Hydro"><g><path d="M121.155,12.943c-5.341,44.568 5.332,88.888 24.245,117.613c-10.163,-0.994 -20.051,-2.215 -29.458,-3.578c-21.753,-25.571 -34.935,-72.05 -26.496,-122.969c-1.978,-0.135 -3.96,-0.22 -5.96,-0.22c-6.13,0 -12.089,0.674 -17.823,1.946c-8.417,47.084 4.754,91.572 31.001,117.555c-7.092,-1.229 -13.677,-2.492 -19.677,-3.683c-26.455,-24.677 -39.57,-64.583 -34.138,-105.064c-5.854,3.334 -11.251,7.37 -16.09,11.994c-3.322,43.679 17.547,76.471 38.384,91.309c-3.452,-0.748 -6.594,-1.45 -9.384,-2.086c-6.514,-3.424 -40.286,-29.508 -40.705,-75.26c-8.64,13.001 -13.667,28.613 -13.667,45.381c0,17.127 5.233,33.027 14.202,46.187l60.49,0l0,2.965l-58.371,0c14.972,20.009 38.856,32.959 65.778,32.959c45.314,0 82.07,-36.766 82.07,-82.111c0,-31.737 -18.024,-59.276 -44.401,-72.938Z" style="fill:#fff;fill-rule:nonzero;"/><path d="M83.459,192.689l6.765,0l0,20.985l9.002,0l0,-20.985l6.765,0l0,48.881l-6.765,0l0,-22.209l-9.002,0l0,22.209l-6.765,0l0,-48.881Z" style="fill:#fff;fill-rule:nonzero;"/><path d="M115.302,192.689l6.765,0l5.892,20.58l0.136,0l6.768,-20.58l5.954,0l-9.408,28.84l0,20.041l-6.765,0l0,-20.041l-9.342,-28.84Z" style="fill:#fff;fill-rule:nonzero;"/><path d="M156.896,235.876l3.248,0c5.005,0 5.958,-2.636 5.958,-11.033l0,-16.787c0,-7.248 -0.747,-9.679 -6.499,-9.679l-2.707,0l0,37.499Zm-6.769,-43.187l10.898,0c10.966,0 11.848,3.654 11.848,17.87l0,14.558c0,12.522 -2.241,16.453 -12.932,16.453l-9.814,0l0,-48.881Z" style="fill:#fff;fill-rule:nonzero;"/><path d="M228.193,230.262c0,4.195 1.903,6.432 4.671,6.432c2.844,0 4.739,-2.237 4.739,-6.432l0,-25.656c0,-4.805 -1.619,-7.04 -4.739,-7.04c-3.041,0 -4.671,2.235 -4.671,7.04l0,25.656Zm-6.767,-25.116c0,-6.841 2.23,-12.861 11.438,-12.861c8.733,0 11.509,4.534 11.509,12.118l0,24.711c0,6.832 -2.23,12.857 -11.509,12.857c-8.663,0 -11.438,-4.539 -11.438,-12.118l0,-24.707Z" style="fill:#fff;fill-rule:nonzero;"/><path d="M194.68,214.623l-1.758,0l0,-16.246l3.249,0c4.194,0 4.605,0.678 4.605,7.92c0,7.312 -0.748,8.326 -6.096,8.326Zm5.82,26.932l6.77,0l0,-16.847c0,-4.605 -1.556,-6.97 -6.161,-7.446l0,-0.132c5.549,-1.698 6.434,-4.536 6.434,-11.1c0,-10.698 -1.015,-13.341 -10.902,-13.341l-10.489,0l0,48.881l6.77,0l0,-21.263l2.302,0c4.461,0 5.276,1.222 5.276,5.825l0,15.423Z" style="fill:#fff;fill-rule:nonzero;"/></g></g></svg>