<?xml version="1.0" encoding="UTF-8" standalone="no"?><!DOCTYPE svg PUBLIC "-//W3C//DTD SVG 1.1//EN" "http://www.w3.org/Graphics/SVG/1.1/DTD/svg11.dtd"><svg width="100%" height="100%" viewBox="0 0 246 246" version="1.1" xmlns="http://www.w3.org/2000/svg" xmlns:xlink="http://www.w3.org/1999/xlink" xml:space="preserve" style="fill-rule:evenodd;clip-rule:evenodd;stroke-linejoin:round;stroke-miterlimit:1.41421;"><g id="KPMG"><g><path d="M244.106,150.266l-21.909,0l2.739,-9.763l-21.396,0l-2.38,7.639l11.274,0l-0.674,2.124l-20.621,0l0,-10.342c3.296,-10.638 8.466,-17.645 17.714,-17.209c6.521,0.309 10.221,2.74 8.429,8.758c-0.12,0.403 -0.177,0.905 -0.346,1.251l10.376,0.014c2.661,-7.734 -2.626,-17.31 -17.473,-17.31c-5.92,0 -12.666,0.767 -18.7,6.129l0,-45.945l52.967,0l0,74.654Z" style="fill:#fff;"/><path d="M185.603,128.261c-2.141,3.44 -4.094,7.788 -5.765,13.281c-0.988,3.248 -1.423,6.147 -1.416,8.724l-9.874,0l8.415,-33.773l-16.588,0c-10.758,14.93 -17.166,26.359 -20.802,33.773l-3.6,0c0.483,-16.142 -1.222,-33.773 -1.222,-33.773l-1.97,0l0,-40.881l52.822,0l0,52.649Zm-27.958,22.005l-9.255,0l17.142,-26.529l-7.887,26.529Z" style="fill:#fff;"/><path d="M127.096,116.493l-8.76,0l-10.345,33.773l-33.841,0l0,-3.221l7.328,-0.004c16.123,0.02 23.24,-7.16 24.745,-15.305c2.877,-15.56 -9.665,-15.381 -21.306,-15.24l-10.767,0l0,-40.884l52.946,0l0,40.881Zm-0.332,33.773l-9.459,0l7.856,-26.534l1.603,26.534Z" style="fill:#fff;"/><path d="M19.366,116.499l-3.579,11.92l0,-52.807l52.821,0l0,52.296l-6.744,22.358l-21.612,0l-4.876,-10.407l25.005,-23.36l-13.904,0l-22.103,22.288l4.634,11.479l-8.499,0c4.414,-14.692 10.167,-33.737 10.176,-33.767l-11.319,0Zm4.999,22.296l-0.008,0.009l0.01,0l-0.002,-0.009l0.009,-0.008l-0.014,-0.034l0.005,0.042Z" style="fill:#fff;"/><path d="M136.475,114.593l0.164,1.715c0.084,0.86 1.653,17.368 1.261,33.032c3.68,-7.491 10.121,-18.948 20.935,-33.958l0.569,-0.789l19.989,0l-0.587,2.358l-12.576,50.471l-0.359,1.439l-15.735,0l0.727,-2.44l9.075,-30.528l-20.742,32.1l-0.562,0.868l-12.649,0l-0.108,-1.784l-1.96,-32.457l-9.736,32.882l-0.402,1.359l-13.47,0l0.751,-2.454l15.461,-50.47l0.411,-1.344l19.543,0Zm27.913,52.37l12.575,-50.47l-16.588,0c-20.16,27.977 -25.042,43.663 -25.042,43.663c1.923,-17.758 -0.582,-43.663 -0.582,-43.663l-16.415,0l-15.46,50.47l9.485,0l12.8,-43.231l2.612,43.231l9.828,0l27.931,-43.226l-12.851,43.226l11.707,0Z" style="fill:#fff;"/><path d="M227.44,138.605l-0.676,2.41l-7.152,25.497l-0.254,0.905l-0.874,0.346c-3.39,1.344 -13.428,2.385 -19.8,2.385c-5.962,0 -13.977,-2.221 -18.593,-8.451c-2.707,-3.651 -5.262,-10.206 -2.07,-20.707c7.358,-24.198 20.214,-27.46 31.818,-27.46c7.884,0 14.094,2.615 17.481,7.365c2.605,3.649 3.256,8.192 1.786,12.459l-0.44,1.283l-1.356,-0.001l-10.377,-0.012l-3.037,-0.004l1.323,-2.709c0.025,-0.067 0.067,-0.253 0.094,-0.378c0.04,-0.182 0.086,-0.387 0.149,-0.601c0.542,-1.823 0.489,-3.212 -0.16,-4.126c-0.905,-1.275 -3.166,-2.034 -6.539,-2.194c-7.68,-0.361 -12.673,4.931 -16.195,17.159c-1.89,6.563 -1.778,11.502 0.324,14.285c1.518,2.01 4.204,3.021 7.984,3.009c4.201,-0.014 5.793,-0.465 6.316,-0.679l2.648,-8.347l-11.261,0l0.767,-2.462l2.381,-7.638l0.417,-1.334l25.296,0Zm-0.128,-5.867l-10.376,-0.014c0.169,-0.346 0.226,-0.848 0.346,-1.251c1.792,-6.018 -1.908,-8.449 -8.429,-8.758c-9.626,-0.454 -14.834,7.156 -18.109,18.531c-3.532,12.264 -0.561,19.753 10.137,19.717c8.503,-0.029 8.05,-1.78 8.05,-1.78l3.503,-11.041l-11.274,0l2.38,-7.639l21.396,0l-7.152,25.494c-2.858,1.134 -12.351,2.254 -19.1,2.254c-10.157,0 -24.91,-6.769 -18.846,-26.709c7.254,-23.857 19.843,-26.114 30.001,-26.114c14.847,0 20.134,9.576 17.473,17.31Z" style="fill:#fff;"/><path d="M17.067,168.889l-15.413,0l0.736,-2.444l15.157,-50.493l0.406,-1.352l15.289,0l-0.737,2.449c-1.166,3.852 -2.864,9.478 -4.706,15.587l17.33,-17.473l0.556,-0.563l19.509,0l-3.518,3.286l-23.995,22.417l12.125,25.883l1.267,2.703l-16.594,0l-0.479,-1.187l-9.6,-23.78c-3.583,11.903 -6.831,22.729 -7.014,23.461l-0.319,1.506Zm43.314,-52.39l-13.904,0l-22.103,22.288l11.387,28.203l12.326,0l-12.711,-27.131l25.005,-23.36Zm-44.852,50.491c0.22,-1.04 15.156,-50.491 15.156,-50.491l-11.319,0l-15.159,50.491l11.322,0Zm8.836,-28.195l-0.008,0.009l0.01,0l-0.002,-0.009l0.009,-0.008l-0.014,-0.034l0.005,0.042Z" style="fill:#fff;"/><path d="M84.949,114.596c8.195,-0.099 16.669,-0.201 20.997,4.935c2.464,2.923 3.165,7.03 2.145,12.551c-0.938,5.077 -5.409,16.881 -26.613,16.859l-6.894,0.001l-5.56,18.59l-0.406,1.357l-14.353,0l0.738,-2.448l15.23,-50.494l0.407,-1.351l14.309,0Zm-17.743,52.393l5.964,-19.943l8.308,-0.005c16.123,0.02 23.24,-7.16 24.745,-15.305c2.877,-15.56 -9.665,-15.381 -21.306,-15.24l-12.866,0l-15.231,50.493l10.386,0Z" style="fill:#fff;"/><path d="M75.133,139.63c3.751,0 6.491,0.06 9.015,0.013c7.59,-0.138 9.916,-2.761 11.625,-7.907c2.969,-8.926 -4.629,-7.988 -16.013,-7.975l-4.627,15.869Z" style="fill:#fff;"/></g></g></svg>