<?xml version="1.0" encoding="UTF-8" standalone="no"?><!DOCTYPE svg PUBLIC "-//W3C//DTD SVG 1.1//EN" "http://www.w3.org/Graphics/SVG/1.1/DTD/svg11.dtd"><svg width="100%" height="100%" viewBox="0 0 246 246" version="1.1" xmlns="http://www.w3.org/2000/svg" xmlns:xlink="http://www.w3.org/1999/xlink" xml:space="preserve" style="fill-rule:evenodd;clip-rule:evenodd;stroke-linejoin:round;stroke-miterlimit:1.41421;"><g id="NorgesSkiforbund"><g><path id="path2446" d="M111.277,171.707c4.143,0 7.55,-3.4 7.55,-7.55c0,-4.135 -3.407,-7.495 -7.55,-7.495l-25.381,0l0,26.559l3.491,0l0,-23.043l21.89,0c2.207,0 4.027,1.749 4.027,3.979c0,2.224 -1.82,4.05 -4.027,4.05l-16.732,0l0,7.472c0,4.196 3.352,7.542 7.55,7.542l15.198,0l0,-3.493l-15.198,0c-2.23,0 -4.051,-1.826 -4.051,-4.049l0,-3.972l13.233,0Z" style="fill:#fff;fill-rule:nonzero;"/><path id="path2450" d="M37.293,164.157l0,19.064l3.515,0l0,-19.064c0,-4.142 -3.344,-7.495 -7.541,-7.495l-15.866,0c-4.18,0 -7.533,3.353 -7.533,7.495l0,19.064l3.516,0l0,-19.064c0,-2.175 1.803,-3.979 4.017,-3.979l15.866,0c2.222,0 4.026,1.804 4.026,3.979" style="fill:#fff;fill-rule:nonzero;"/><path id="path2454" d="M75.9,175.679c0,2.222 -1.828,4.05 -4.049,4.05l-17.253,0c-2.23,0 -4.033,-1.828 -4.033,-4.05l0,-11.522c0,-2.175 1.803,-3.979 4.033,-3.979l17.253,0c2.221,0 4.049,1.804 4.049,3.979l0,11.522Zm-4.049,-19.016l-17.253,0c-4.196,0 -7.549,3.359 -7.549,7.494l0,11.522c0,4.197 3.353,7.542 7.549,7.542l17.253,0c4.196,0 7.541,-3.345 7.541,-7.542l0,-11.522c0,-4.135 -3.345,-7.494 -7.541,-7.494" style="fill:#fff;fill-rule:nonzero;"/><path id="path2458" d="M138.702,171.707l14.38,0l0,8.021l-21.302,0c-2.221,0 -4.027,-1.826 -4.027,-4.049l0,-11.522c0,-2.176 1.806,-3.979 4.027,-3.979l24.577,0l0,-3.516l-24.577,0c-4.173,0 -7.526,3.353 -7.526,7.495l0,11.522c0,4.196 3.353,7.542 7.526,7.542l24.794,0l0,-15.014l-17.872,0l0,3.5Z" style="fill:#fff;fill-rule:nonzero;"/><path id="path2462" d="M170.162,160.178l21.921,0l0,-3.516l-21.921,0c-4.212,0 -7.564,3.354 -7.564,7.495l0,11.522c0,4.198 3.352,7.542 7.564,7.542l21.921,0l0,-3.493l-21.921,0c-2.23,0 -4.034,-1.826 -4.034,-4.049l0,-3.972l25.715,0l0,-3.5l-25.715,0l0,-4.05c0,-2.176 1.804,-3.979 4.034,-3.979" style="fill:#fff;fill-rule:nonzero;"/><path id="path2466" d="M220.855,168.207l-15.555,0c-2.223,0 -4.027,-1.826 -4.027,-4.05c0,-2.175 1.804,-3.979 4.027,-3.979l22.052,0l0,-3.515l-22.052,0c-4.159,0 -7.542,3.353 -7.542,7.494c0,4.197 3.383,7.55 7.542,7.55l15.555,0c2.23,0 4.034,1.796 4.034,3.972c0,2.222 -1.804,4.05 -4.034,4.05l-22.052,0l0,3.492l22.052,0c4.144,0 7.55,-3.345 7.55,-7.542c0,-4.142 -3.406,-7.472 -7.55,-7.472" style="fill:#fff;fill-rule:nonzero;"/><path id="path2470" d="M122.853,202.237c2.71,0 4.917,-2.206 4.917,-4.931c0,-2.703 -2.207,-4.894 -4.917,-4.894l-16.601,0l0,17.36l2.284,0l0,-15.061l14.317,0c1.44,0 2.632,1.138 2.632,2.595c0,1.471 -1.192,2.632 -2.632,2.632l-10.948,0l0,4.917c0,2.74 2.191,4.917 4.932,4.917l10.088,0l0,-2.285l-10.088,0c-1.456,0 -2.632,-1.177 -2.632,-2.632l0,-2.618l8.648,0Z" style="fill:#fff;fill-rule:nonzero;"/><path id="path2474" d="M24.138,199.938l-10.181,0c-1.457,0 -2.648,-1.162 -2.648,-2.61c0,-1.44 1.191,-2.618 2.648,-2.618l14.246,0l0,-2.299l-14.246,0c-2.71,0 -4.933,2.192 -4.933,4.917c0,2.717 2.223,4.909 4.933,4.909l10.181,0c1.448,0 2.633,1.178 2.633,2.618c0,1.456 -1.185,2.632 -2.633,2.632l-14.27,0l0,2.284l14.27,0c2.703,0 4.91,-2.176 4.91,-4.916c0,-2.711 -2.207,-4.917 -4.91,-4.917" style="fill:#fff;fill-rule:nonzero;"/><path id="path2478" d="M46.794,198.598l4.219,-6.186l-2.778,0l-4.089,6.015c-0.852,1.232 -1.255,1.511 -2.803,1.511l-5.667,0l0,-7.526l-2.3,0l0,17.36l2.3,0l0,-7.535l5.651,0c1.549,0 1.951,0.295 2.796,1.534l4.088,6.001l2.78,0l-4.197,-6.172c-0.589,-0.867 -1.138,-1.781 -1.912,-2.5c0.774,-0.698 1.323,-1.619 1.912,-2.502" style="fill:#fff;fill-rule:nonzero;"/><rect id="path2480" x="54.583" y="192.411" width="2.276" height="17.36" style="fill:#fff;fill-rule:nonzero;"/><path id="path2484" d="M61.227,197.328l0,12.443l2.284,0l0,-7.535l14.355,0l0,-2.298l-14.355,0l0,-2.61c0,-1.439 1.178,-2.618 2.633,-2.618l11.963,0l0,-2.299l-11.963,0c-2.749,0 -4.917,2.192 -4.917,4.917" style="fill:#fff;fill-rule:nonzero;"/><path id="path2488" d="M99.826,204.855c0,1.456 -1.178,2.632 -2.649,2.632l-11.265,0c-1.471,0 -2.633,-1.176 -2.633,-2.632l0,-7.527c0,-1.44 1.162,-2.618 2.633,-2.618l11.265,0c1.471,0 2.649,1.178 2.649,2.618l0,7.527Zm-2.649,-12.444l-11.265,0c-2.765,0 -4.956,2.192 -4.956,4.917l0,7.527c0,2.74 2.191,4.916 4.956,4.916l11.265,0c2.756,0 4.932,-2.176 4.932,-4.916l0,-7.527c0,-2.725 -2.176,-4.917 -4.932,-4.917" style="fill:#fff;fill-rule:nonzero;"/><path id="path2492" d="M147.646,199.938l-13.914,0l0,-5.228l13.914,0c1.478,0 2.633,1.139 2.633,2.618c0,1.448 -1.155,2.61 -2.633,2.61m0,7.549l-13.914,0l0,-5.25l13.914,0c1.478,0 2.633,1.178 2.633,2.618c0,1.456 -1.155,2.632 -2.633,2.632m0,-15.076l-16.214,0l0,17.36l16.214,0c2.749,0 4.94,-2.176 4.94,-4.916c0,-1.255 -0.441,-2.417 -1.696,-3.756c1.255,-1.401 1.696,-2.525 1.696,-3.771c0,-2.725 -2.191,-4.917 -4.94,-4.917" style="fill:#fff;fill-rule:nonzero;"/><path id="path2496" d="M174.707,204.855c0,1.456 -1.16,2.632 -2.608,2.632l-10.825,0c-1.479,0 -2.634,-1.176 -2.634,-2.632l0,-12.444l-2.299,0l0,12.444c0,2.74 2.183,4.916 4.933,4.916l10.825,0c2.717,0 4.931,-2.176 4.931,-4.916l0,-12.444l-2.323,0l0,12.444Z" style="fill:#fff;fill-rule:nonzero;"/><path id="path2500" d="M196.868,192.411l-10.802,0c-2.764,0 -4.931,2.192 -4.931,4.917l0,12.443l2.299,0l0,-12.443c0,-1.439 1.161,-2.618 2.632,-2.618l10.802,0c1.456,0 2.655,1.179 2.655,2.618l0,12.443l2.285,0l0,-12.443c0,-2.725 -2.192,-4.917 -4.94,-4.917" style="fill:#fff;fill-rule:nonzero;"/><path id="path2504" d="M225.052,204.855c0,1.456 -1.162,2.632 -2.633,2.632l-13.914,0l0,-12.777l13.914,0c1.471,0 2.633,1.178 2.633,2.618l0,7.527Zm-2.633,-12.444l-16.213,0l0,17.36l16.213,0c2.741,0 4.933,-2.176 4.933,-4.916l0,-7.527c0,-2.725 -2.192,-4.917 -4.933,-4.917" style="fill:#fff;fill-rule:nonzero;"/><path id="path2508" d="M23.488,123.616c0.263,-0.698 0.612,-1.34 1.348,-1.626c2.725,-1.077 3.623,2.996 3.824,3.654c0.17,0.681 0.318,3.036 0.116,4.475c-0.171,1.425 -0.589,3.291 0.829,3.214c1.912,-0.124 0.402,-6.605 0.627,-7.495c0.457,-4.336 15.053,-7.519 16.213,-7.967c1.696,-0.643 1.472,-1.077 2.912,-1.225c2.648,-0.262 7.301,-1.88 10.786,-4.165c3.492,-2.261 4.064,-2.973 5.498,-3.609c1.439,-0.641 2.253,-0.084 2.431,0.264c0.186,0.418 -1.139,1.332 -2.246,2.602c-1.137,1.269 -5.613,6.395 -7.859,8.788c-1.634,1.735 -6.658,2.587 -3.918,5.931c2.741,3.346 3.531,5.769 3.477,7.751c0,1.967 -0.186,2.872 -1.418,4.065c-1.896,1.843 -7.788,0.875 -25.791,0.875c-3.902,0 -5.536,-5.846 -5.738,-6.303c-0.409,-1.603 -0.812,-3.608 -1.029,-4.785c-0.333,-1.68 -0.317,-3.74 -0.062,-4.444m22.973,-14.696c1.092,-1.719 13.511,-0.805 14.913,-0.519c0.333,0.069 1.108,0.132 0.735,0.55c-5.373,4.815 -13.712,7.804 -13.914,6.519c-0.409,-2.702 -2.78,-4.847 -1.734,-6.55m3.832,-9.424c0.643,-1.749 1.928,-3.182 3.756,-4.615c1.564,-1.215 4.677,-2.849 5.521,-5.985c0.604,-2.323 0.48,-2.578 1.525,-4.886c1.053,-2.291 2.486,-5.614 3.717,-6.837c1.239,-1.23 10.422,1.959 12.853,3.57c1.75,1.176 3.259,1.308 4.475,3.422c1.232,2.091 3.16,6.001 3.934,7.79c0.758,1.757 4.274,1.726 5.706,3.694c0.907,1.246 3.74,5.465 3.74,5.465c0,0 0.496,0.612 -0.696,0.504c-2.045,-0.209 -7.736,0.511 -12.281,3.151c-1.788,1.045 -3.756,2.323 -5.784,2.873c-3.879,1.03 -6.899,-1.068 -10.786,-1.339c-12.458,-0.861 -16.492,-4.585 -15.68,-6.807m23.911,-36.221c2.764,-3.546 5.815,-5.529 10.864,-6.133c5.04,-0.589 8.261,2.084 9.129,6.264c0,0 0.696,2.904 0.711,5.358c0.023,2.385 -2.221,3.787 -2.221,3.787c0,0 -2.099,1.293 -0.411,4.437c0.745,1.378 1.936,0.937 3.005,0.403c0.921,-0.443 3.77,-2.3 4.801,-2.448c1.548,-0.225 2.043,2.448 2.671,4.251c0.441,1.154 0.2,2.084 -1.178,2.679c-0.697,0.303 -5.962,2.602 -5.962,2.602c0,0 -5.412,2.431 -7.386,2.191c-1.139,-0.123 -1.448,-1.192 -1.82,-2.191c-0.511,-1.448 -4.158,-14.944 -4.56,-15.904c-0.426,-0.975 -0.705,-2.339 -1.587,-2.339c-0.9,0 -2.246,1.239 -1.914,2.68c0.295,1.223 3.128,4.576 3.585,5.792c0.357,0.936 0.976,3.205 0.976,4.274c0,1.27 -2.904,-1.216 -3.143,-1.387c-4.034,-2.794 -7.642,-4.46 -12.52,-4.917c0,0 4.18,-5.869 6.96,-9.399m33.388,17.119c0.96,-0.944 7.564,1.084 8.362,1.518c10.251,5.529 4.08,8.509 5.707,10.368c5.442,6.388 5.869,6.681 2.044,7.711c-3.833,1.015 -9.222,3.826 -13.125,3.826c-3.871,0 -7.425,2.191 -9.191,1.757c-1.23,-0.301 -6.124,-8.377 -7.192,-10.073c-1,-1.58 -3.958,-4.855 -2.71,-6.124c1.269,-1.255 6.534,-4.182 8.888,-5.212c2.378,-1.03 6.187,-2.725 7.217,-3.771m4.622,-20.875c1.402,-1.834 3.035,-4.491 6.001,-5.009c2.966,-0.535 6.333,0.843 7.619,2.152c1.294,1.293 4.328,6.133 4.328,8.843c0,2.718 -2.043,3.12 -1.727,5.071c0.295,1.936 0.55,1.789 0.736,2.842c0.178,1.045 0.589,1.695 2.462,1.525c1.898,-0.178 8.084,-1.548 8.804,-1.053c0.605,0.411 0.457,4.376 -0.038,5.274c-0.334,0.789 -4.863,2.183 -5.908,2.337c-1.712,0.272 -4.585,1.154 -7.015,1.154c-2.394,0 -3.516,-1.455 -3.919,-1.99c-0.596,-0.728 -5.063,-12.009 -5.505,-13.069c-0.41,-1.007 -0.666,-1.418 -1.069,-1.619c-0.386,-0.202 -2.323,-0.441 -2.485,1.394c-0.186,1.85 3.221,4.274 4.212,6.411c0.976,2.152 3.462,7.077 1.092,6.814c-0.851,-0.077 -4.824,-2.284 -6.891,-3.841c1.037,-1.533 0.333,-5.311 -1.208,-7.186c-1.51,-1.873 -4.049,-0.239 -4.049,-1.548c0,-1.309 3.159,-6.667 4.56,-8.502m29.431,20.829c-0.055,0.944 0.465,2.741 0.666,3.685c0.402,1.796 1.882,9.711 1.068,14.387c-0.72,-0.139 -4.769,-1.441 -8.795,3.012c-1.185,1.325 -1.441,2.137 -2.215,1.951c-0.588,-0.147 -1.192,-1.324 -1.541,-1.804c0,0 -1.347,-3.035 -2.431,-4.878c-1.108,-1.882 -2.485,-5.807 -2.54,-6.28c-0.093,-1.084 4.228,-5.063 6.458,-6.457c2.191,-1.386 4.49,-2.091 6.906,-2.779c0.844,-0.241 2.462,-1.789 2.424,-0.837m2.122,-9.554c0.403,-2.718 5.908,-7.256 6.333,-8.053c0.419,-0.814 7.008,4.018 6.07,4.839c-1.044,0.898 -5.776,4.676 -5.799,6.496c-0.031,1.842 -0.387,8.448 -2.005,10.05c-0.659,0.682 -2.191,0.666 -2.982,0.28c-1.269,-0.573 -1.819,-3.059 -1.819,-5.931c0,-2.873 -0.186,-4.948 0.202,-7.681m9.794,-14.689c7.89,-6.349 15.587,-3.384 17.709,-0.286c2.098,3.096 3.344,6.108 4.56,7.355c1.216,1.224 3.128,2.974 2.028,4.924c-1.145,1.937 -6.078,5.847 -6.96,6.497c-2.083,1.432 -3.74,2.694 -6.202,3.507c-0.829,0.28 -2.153,0.782 -3.005,0.357c-0.75,-0.334 -3.019,-2.393 -4.344,-3.741c-1.362,-1.346 -2.43,-2.399 -2.43,-3.53c0,-1.13 6.356,-4.476 7.44,-5.249c1.402,-0.976 5.924,-3.105 4.506,-4.546c-1.912,-1.951 -3.546,1.975 -5.442,3.461c-2.578,2.029 -3.701,1.99 -4.863,0.535c-1.579,-1.967 -5.8,-5.172 -5.839,-5.915c-0.014,-0.218 -0.457,-0.714 2.842,-3.369m29.671,14.348c2.153,0 8.317,0.603 10.012,0.937c1.711,0.332 2.779,0.441 5.281,1.332c2.524,0.889 4.49,-1.108 7.054,-2.587c2.539,-1.441 12.457,-4.862 13.55,-5.389c0.496,-0.225 2.005,-0.813 3.399,-0.983l-21.441,74.997c-2.353,0.179 -7.681,0.272 -7.681,0.272c-12.202,0 -9.57,-1.789 -9.57,-1.789c2.981,-2.137 5.436,-4.662 7.952,-4.692c2.153,-0.039 2.525,1.339 3.903,1.874c1.68,0.643 3.073,-1.99 1.107,-2.967c0,0 -1.898,-1.137 -4.29,-1.082c-3.035,0.077 -6.163,2.632 -10.531,5.504c-1.362,0.898 -3.94,2.749 -9.182,2.749c-3.098,0 -8.982,-4.646 -8.03,-6.76c0.52,-1.177 2.068,-2.834 2.455,-3.5c0.658,-1.03 6.294,-10.863 6.737,-11.281c0.417,-0.426 1.564,-1.308 2.005,-2.23c0.773,-1.665 0.921,-2.137 2.632,-3.113c1.726,-0.975 1.394,-4.064 0.255,-5.69c-1.161,-1.643 -10.127,-13.543 -10.917,-14.318c-0.774,-0.782 -2.54,-2.771 -3.531,-3.871c-0.998,-1.107 -3.182,-3.801 -3.182,-4.839c0,-1.069 0.565,-2.431 2.184,-2.408c2.339,0.046 4.569,-0.751 6.574,-1.944c1.494,-0.859 3.771,-2.253 6.108,-4.599c2.378,-2.354 5.01,-3.623 7.147,-3.623m2.448,-3.082c0.75,-1.82 1.253,-2.772 2.283,-4.56c1.029,-1.782 11.653,-0.109 13.713,-0.403c2.044,-0.326 3.5,-0.845 5.374,-1.061c2.005,-0.232 2.795,-0.209 3.314,0.898c0.518,1.061 1.711,3.144 0.68,4.166c-1.052,1.022 -6.108,2.153 -7.231,2.586c-1.107,0.441 -1.975,1.579 -3.167,1.579c-1.99,0.039 -15.555,-1.819 -14.966,-3.205m-19.11,70.398c-1.123,0.404 -4.104,0.511 -6.149,0.149c-2.021,-0.381 -2.555,-0.636 -3.755,-2.223c-1.192,-1.541 1.588,-6.644 2.177,-7.658c0.587,-0.999 0.921,1.401 2.523,1.827c1.596,0.403 1.339,2.61 2.184,4.158c0.797,1.432 3.391,3.601 3.02,3.747m-1.285,-44.234c-1.843,1.075 -4.515,1.748 -6.722,1.748c-2.207,0 -6.844,-1.068 -7.324,-2.346c-0.682,-1.757 -0.52,-3.453 -0.52,-5.59c0,-2.152 0.559,-8.392 0.721,-9.29c0.317,-1.657 3.298,0.262 4.182,1.277c0.843,1.03 11.095,13.371 9.663,14.201m1.95,15.385c-0.936,-0.93 -2.648,-0.737 -5.93,-3.051c-3.292,-2.339 -3.585,-5.444 -3.903,-6.815c-0.534,-2.237 0.998,-1.657 2.671,-2.005c1.673,-0.332 7.217,-2.168 7.217,-2.168c0.72,0 8.231,9.531 8.649,10.106c1.548,1.95 2.671,4.366 0.146,5.876c-0.712,0.425 -2.207,1.068 -2.942,2.687c-0.751,1.603 -3.848,-0.457 -5.412,-1.487c-1.548,-1.03 0.441,-2.214 -0.496,-3.143m-13.697,31.335c-2.756,-0.488 -5.536,-0.859 -6.016,-0.868c-0.256,-0.564 -1.27,-1.146 -3.059,-1.741c-4.599,-1.526 -4.985,-3.57 -4.985,-3.57c-0.55,-0.89 -2.23,-18.08 -3.648,-21.176c-0.348,-0.736 0.256,-2.618 -0.109,-4.205c-0.239,-1.139 -0.294,-1.03 -1.323,-2.819c-1.03,-1.796 2.059,-4.815 3.848,-5.551c4.142,-1.75 5.467,0.202 6.147,1.216c0.62,0.913 2.664,2.926 3.609,3.244c3.051,1.007 4.815,-0.341 6.566,0.077c1.711,0.434 4.847,2.889 5.746,3.423c0.905,0.534 3.034,1.548 4.235,2.748c1.161,1.178 -4.089,1.635 -4.662,6.404c-0.588,4.769 -1.339,8.192 -2.153,10.236c-0.805,2.028 -3.755,5.924 -4.064,6.984c-0.278,1.014 0.256,1.82 1.177,2.446c1.161,0.815 5.412,4.291 -1.309,3.152m-34.936,-35.602c0.573,-0.357 2.409,-1.216 4.182,-1.896c1.764,-0.682 5.388,-2.084 6.24,-1.162c0.62,0.681 1.564,1.889 2.098,2.562c0.441,0.558 2.191,3.098 2.718,3.981c0.147,0.24 1.201,3.003 0,3.53c-1.099,0.496 -5.095,0.225 -6.233,0.07c-0.681,-0.086 -6.465,-4.646 -6.465,-4.646c0,0 -3.129,-2.105 -2.54,-2.439m0.426,3.949c0,0.72 -1.804,2.757 -4.143,2.757c-2.337,0 -4.66,-5.103 -4.142,-5.599c0.534,-0.518 3.291,-0.263 4.476,0.148c1.153,0.409 3.809,1.973 3.809,2.694m26.488,30.84c-0.278,0.154 -2.71,1.495 -6.558,1.495c-5.281,0 -14.34,0.163 -17.375,-2.144c-2.725,-2.068 -2.741,-2.309 -5.482,-2.782c-1.2,-0.209 -3.275,-0.186 -3.755,-1.354c-2.447,-6.318 -3.996,-17.236 -5.158,-18.382c0.132,-0.333 0.109,-0.402 0.52,-0.595c1.487,-0.691 6.775,-1.93 8.834,-2.634c2.075,-0.712 2.943,-1.394 3.826,-2.276c0.866,-0.875 4.437,2.98 5.521,3.941c0.68,0.55 0.169,2.323 0.757,4.661c0.589,2.331 4.801,11.77 4.824,12.884c0.016,0.698 -0.758,3.811 0.388,3.787c1.246,-0.015 0.03,-3.74 2.129,-4.128c1.278,-0.247 3.19,-0.51 3.632,1.193c0.867,3.267 3.585,4.576 5.443,5.11c2.803,0.79 2.71,1.085 2.454,1.224m-28.276,-0.526c-1.564,1.121 -9.571,1.548 -23.416,0.773c-3.848,-0.216 -5.908,-1.935 -6.642,-2.493c-0.845,-0.633 -2.71,-1.663 -2.378,-4.615c0.348,-2.957 0.775,-3.6 -0.07,-5.319c-0.867,-1.71 -1.03,-2.849 -0.17,-3.692c0.681,-0.682 2.78,-2.603 3.609,-1.596l2.539,3.485c0.357,0.619 0.65,1.123 0.41,2.098c0,0 -0.797,3.901 -0.921,4.622c-0.225,1.216 -0.201,3.957 0.79,4.196c0.642,0.149 0.666,-0.974 0.681,-2.337c0,-1.619 0.202,-3.283 0.402,-4.901c0.132,-1.046 0.961,-4.414 2.068,-5.514c1.1,-1.107 3.755,-2.23 4.321,-1.347c0.557,0.851 0.867,2.485 3.74,5.195c2.446,2.316 2.353,6.621 3.499,8.354c0.767,1.194 2.261,-0.332 4.429,-0.441c0.921,-0.046 1.401,0.534 2.965,1c0.814,0.239 2.982,0.379 3.664,0.611c0,0 2.214,0.675 0.48,1.921m-25.769,-36.02c1.487,-0.232 4.56,-0.403 5.467,0.852c0.75,1.037 2.74,3.398 3.755,4.142c1.657,1.207 5.597,3.446 5.683,5.59c0.132,2.145 -1.045,2.145 -2.834,2.671c-1.51,0.379 -3.987,0.527 -4.374,0.311c-0.388,-0.241 -5.707,-4.174 -7.565,-5.158c-1.882,-1.007 -6.892,-3.848 -7.806,-4.73c-0.89,-0.899 4.949,-3.276 7.674,-3.678m-5.985,7.224c-0.418,0.743 -1.82,1.92 -3.198,2.625c-1.255,0.657 -2.471,0.735 -3.446,-0.411c-1.897,-2.153 -2.021,-3.105 -1.03,-3.639c0.991,-0.535 1.805,-1.03 2.687,-1.301c0.991,1.123 4.119,2.037 4.987,2.726m0.588,29.369c-0.093,0.014 -4.932,-0.047 -6.659,-0.047l-0.078,0c0,0 -15.462,0.047 -18.351,-1.076c-2.469,-0.961 -2.323,-6.497 -2.323,-7.899c0,-1.935 -0.548,-2.964 -1.23,-4.212c-0.697,-1.269 -0.898,-2.19 -0.07,-3.019c0.829,-0.836 2.796,-0.766 4.212,0.496c2.339,2.059 0.961,11.87 3.462,12.296c2.43,0.425 1.052,-1.178 0.643,-1.952c-0.512,-1.038 -0.457,-3.259 -0.512,-4.878c-0.116,-3.027 0,-5.869 2.849,-7.379c2.71,-1.47 10.438,-6.473 12.35,-7.162c1.898,-0.697 3.059,-1.325 4.421,-2.455c1.255,-1.061 1.325,-1.657 2.912,-0.866c3.198,1.564 4.855,2.639 4.855,2.639c0,0 -2.927,3.237 -4.212,4.933c-0.039,0.007 -0.495,0.82 -1.386,1.061c-0.86,0.232 -8.34,1.471 -6.567,5.42c0.604,1.432 1.805,2.539 2.61,3.848c0.945,1.51 -0.015,4.437 -0.015,6.582c0,2.12 4.893,3.266 3.089,3.67m-83.276,2.687l201.085,0c13.031,0 18.297,-1.17 23.639,-4.251c5.351,-3.098 7.379,-6.056 10.763,-6.11c2.137,-0.039 2.508,1.1 3.887,1.657c1.696,0.643 3.074,-2.014 1.123,-2.989c0,0 -1.898,-1.137 -4.305,-1.084c-3.044,0.086 -6.172,2.416 -10.516,5.281c-3.492,2.307 -5.978,3.089 -9.492,3.632c-3.516,0.549 -6.559,0.734 -8.874,0.75c-4.584,0.056 -4.754,-0.162 -4.754,-0.162l21.37,-74.859c1.789,-0.712 3.871,0.279 4.956,-1.478c0.79,-1.386 1.804,-4.739 1.936,-6.087c0.201,-2.16 -0.171,-2.144 -1.457,-3.81c-0.441,-0.58 -1.764,-1.261 -1.618,-1.982l0.752,-2.632c0,0 0.573,-1.254 -1.495,-2.633c-1.765,-1.184 -2.447,1.48 -2.447,1.48l-0.952,3.33c-0.357,0.309 -1.107,0.618 -1.51,0.782c-1.99,0.827 -2.3,2.268 -3.422,3.994c-1.015,1.502 -3.097,1.805 -4.677,2.3c-1.827,0.589 -7.031,1.843 -9.647,2.455c-2.618,0.603 -5.226,0.975 -8.208,0.975c-8.339,0.031 -17.065,-1.548 -17.972,-4.716c-0.457,-1.525 -1.432,0.311 -1.78,2.393c-0.334,2.099 -1.363,3.476 -1.75,2.896c-0.387,-0.596 -0.868,-3.709 -1.673,-6.396c-0.851,-2.663 -2.214,-4.971 -1.478,-5.706c0.719,-0.736 3.964,-1.448 8.989,-1.859c3.902,-0.309 6.791,-0.023 7.89,0.573c0.852,0.434 0.627,1.03 0.48,2.261c0,0 -0.054,0.241 0.372,0.241c0.387,0 0.565,-0.016 0.627,-0.209c0.093,-0.287 0.387,-1.596 0.418,-3.036c0.132,-6.914 -3.678,-11.189 -9.167,-11.189c-2.958,0 -5.467,1.65 -7.194,4.476c-0.828,1.347 -2.137,5.173 -5.761,7.201c-1.896,1.077 -0.573,1.409 0.334,1.325c1.006,-0.093 1.501,0.425 0.859,1.06c-0.627,0.634 -1.874,1.231 -3.809,0.596c-1.928,-0.612 -7.379,-1.44 -10.562,-0.488c-3.19,0.944 -7.123,3.36 -12.001,6.636c-4.902,3.275 -6.722,2.935 -6.722,2.935c-2.175,-0.155 -4.397,-2.246 -5.063,-3.71c-0.682,-1.509 -1.402,0.311 -1.766,2.393c-0.332,2.099 -1.347,3.476 -1.75,2.896c-0.387,-0.596 -0.828,-3.709 -1.696,-6.396c-0.805,-2.663 -2.191,-4.971 -1.432,-5.706c0.721,-0.736 4.012,-1.448 9.059,-1.859c3.88,-0.309 6.791,-0.023 7.89,0.573c0.829,0.434 0.612,1.03 0.465,2.261c0,0 -0.054,0.241 0.387,0.241c0.364,0 0.55,-0.016 0.628,-0.209c0.07,-0.287 0.386,-1.596 0.402,-3.036c0.147,-6.914 -3.662,-11.189 -9.152,-11.189c-2.958,0 -5.482,1.65 -7.193,4.476c-0.829,1.347 -2.152,5.173 -5.761,7.201c-1.92,1.077 -0.573,1.409 0.31,1.325c1.014,-0.093 1.51,0.432 0.883,1.06c-0.643,0.62 -1.309,1.277 -5.537,1.277c0,0 -2.563,0.125 -4.406,1.457c-1.834,1.323 -6.713,6.945 -6.713,6.945l-0.279,0c-1.912,-0.194 -4.049,-1.278 -4.769,-2.719c-0.859,-1.741 -1.712,-0.68 -2.06,1.402c-0.348,2.099 -1.362,3.476 -1.75,2.896c-0.387,-0.596 -0.843,-3.709 -1.687,-6.396c-0.813,-2.663 -1.882,-5.094 -1.162,-5.83c0.721,-0.72 3.515,-1.324 8.541,-1.735c3.902,-0.309 6.79,-0.023 7.897,0.573c0.844,0.434 0.627,1.03 0.48,2.261c0,0 -0.077,0.241 0.364,0.241c0.388,0 0.574,-0.016 0.627,-0.209c0.093,-0.287 0.404,-1.596 0.427,-3.036c0.123,-6.914 -3.687,-11.189 -9.191,-11.189c-2.943,0 -5.444,1.65 -7.178,4.476c-0.829,1.347 -2.153,5.173 -5.761,7.201c-1.897,1.077 -0.572,1.409 0.31,1.325c1.037,-0.093 1.532,0.425 0.891,1.06c-0.651,0.62 -1.294,1.277 -5.544,1.277c-4.236,0 -8.673,-0.054 -13.218,2.393c-6.241,3.624 -14.464,9.129 -18.204,11.428c-3.755,2.269 -7.843,2.873 -9.833,3.664c-5.056,1.982 -6.42,7.502 -2.021,11.923c4.398,4.405 9.276,1.107 10.972,5.444c0.682,1.757 1.27,3.492 -1.641,5.792c-2.501,1.989 -5.63,4.924 -6.567,6.117c-0.851,1.068 -2.098,2.639 -1.332,3.731c0.736,1.068 2.726,1.758 3.755,2.54c-0.773,2.679 -4.947,3.065 -6.363,3.267c-1.441,0.232 -3.3,0.125 -6.76,1.727c-3.439,1.619 -10.143,10.33 -12.513,10.755c-2.338,0.395 -3.338,0.318 -4.143,1.13c-0.827,0.821 -1.493,2.021 -0.611,3.91c0.24,0.496 1.843,3.152 2.601,6.265c0.418,1.796 0.952,8.067 -2.601,8.067c-0.697,0.009 -11.87,0.466 -16.585,0.582c-1.123,0.03 -1.58,0.124 -1.914,0.495c-0.51,0.589 -0.309,1.619 1.03,1.619" style="fill:#fff;fill-rule:nonzero;"/></g></g></svg>