<?xml version="1.0" encoding="UTF-8" standalone="no"?><!DOCTYPE svg PUBLIC "-//W3C//DTD SVG 1.1//EN" "http://www.w3.org/Graphics/SVG/1.1/DTD/svg11.dtd"><svg width="100%" height="100%" viewBox="0 0 246 246" version="1.1" xmlns="http://www.w3.org/2000/svg" xmlns:xlink="http://www.w3.org/1999/xlink" xml:space="preserve" style="fill-rule:evenodd;clip-rule:evenodd;stroke-linejoin:round;stroke-miterlimit:1.41421;"><g id="NorgesGruppen"><g><path d="M161.063,102.058c4.737,-5.957 8.515,-12.558 10.676,-19.696c-3.445,2.073 -8.671,4.169 -12.89,4.16c-5.433,-0.011 -8.839,-2.505 -14.308,-9.643l-2.204,-2.868c-8.257,-10.761 -14.79,-11.468 -19.289,-11.475c-7.869,-0.016 -14.273,4.406 -18.19,11.218c0.831,0.469 1.673,0.964 2.517,1.489c3.285,-4.323 7.234,-7.177 11.854,-7.167c4.722,0.009 8.614,2.242 13.19,8.227l4.048,5.256c5.832,7.613 10.931,10.088 16.296,10.099c3.889,0.008 7.964,-1.25 10.066,-2.212c-2.136,4.397 -5.524,9.082 -9.037,13.148c3.979,4.404 8.879,8.559 12.608,10.743c0,0 -5.297,4.826 -13.774,4.81c-9.396,-0.019 -15.725,-2.865 -25.398,-17.479l-3.196,-4.823c-8.422,-12.742 -16.899,-17.365 -26.865,-17.387c-16.107,-0.031 -26.672,12.779 -26.672,12.779c4.471,2.715 8.806,5.884 12.543,9.502c-4.741,5.956 -8.509,12.558 -10.673,19.697c3.441,-2.074 8.669,-4.17 12.883,-4.163c5.438,0.012 8.84,2.508 14.316,9.642l2.197,2.871c8.253,10.76 14.797,11.464 19.306,11.475c7.857,0.016 14.251,-4.408 18.178,-11.221c-0.831,-0.465 -1.672,-0.961 -2.517,-1.488c-3.292,4.324 -7.237,7.185 -11.861,7.176c-4.72,-0.009 -8.606,-2.253 -13.194,-8.227l-4.035,-5.265c-5.842,-7.611 -10.934,-10.086 -16.3,-10.098c-3.893,-0.007 -7.956,1.25 -10.062,2.212c2.131,-4.401 5.519,-9.085 9.036,-13.147c-3.99,-4.406 -8.878,-8.56 -12.614,-10.746c0,0 5.3,-4.817 13.78,-4.802c9.389,0.021 15.727,2.861 25.398,17.473l3.186,4.82c8.433,12.743 16.91,17.369 26.876,17.389c16.107,0.033 26.663,-12.778 26.663,-12.778c-4.465,-2.715 -8.796,-5.88 -12.538,-9.501" style="fill:#fff;fill-rule:nonzero;"/><path d="M4.494,156.036l12.274,14.184l0,-14.184l3.284,0l0,21.06l-2.997,0l-12.274,-14.167l0,14.167l-3.285,0l0,-21.06l2.998,0" style="fill:#fff;fill-rule:nonzero;"/><path d="M28.823,169.156c0,-2.513 0.477,-5.949 4.019,-5.949c2.844,0 3.864,2.309 3.864,5.784c0,3.298 -0.748,6.169 -3.97,6.169c-3.448,0 -3.913,-3.196 -3.913,-5.971l0,-0.033Zm-4.889,0.262c0,4.441 3.069,7.998 8.634,7.998c5.519,0 9.026,-3.282 9.026,-8.376c0,-4.728 -3.055,-8.027 -8.716,-8.027c-5.792,0 -8.944,3.643 -8.944,8.372l0,0.033" style="fill:#fff;fill-rule:nonzero;"/><path d="M49.364,161.333l0.22,4.014c0.855,-2.248 2.611,-4.263 5.053,-4.263c0.312,0 0.948,0.033 1.845,0.249l-0.594,3.573c-0.417,-0.1 -1.049,-0.245 -1.734,-0.245c-1.334,0 -2.934,0.61 -3.691,2.534c-0.5,1.218 -0.543,2.921 -0.543,4.45l0,5.451l-4.543,0l0,-15.763l3.987,0" style="fill:#fff;fill-rule:nonzero;"/><path d="M62.639,166.115c0,-2.073 1.578,-2.979 3.327,-2.979c2.05,0 3.357,1.06 3.357,2.945c0,2.224 -1.857,2.98 -3.392,2.98c-1.883,0 -3.292,-1.022 -3.292,-2.916l0,-0.03Zm12.286,-2.509l0,-2.273l-5.887,0.096c-1.02,-0.207 -1.942,-0.416 -3.453,-0.416c-4.705,0 -7.139,2.311 -7.139,5.144c0,2.965 2.566,4.046 4.089,4.507c-1.397,1.317 -2.491,2.286 -2.491,3.316c0,1.275 1.63,1.753 2.648,2.018c-1.908,0.574 -4.509,1.521 -4.509,3.487c0,2.222 3.966,3.74 8.215,3.74c5.275,0 8.992,-2.336 8.992,-5.337c0,-4.711 -7.058,-4.511 -9.595,-4.676c-1.433,-0.089 -2.438,-0.163 -2.438,-0.857c0,-0.32 0.195,-0.661 0.889,-1.375c0.468,0.083 0.973,0.179 1.903,0.179c3.363,0 7.306,-1.33 7.306,-4.728c0,-1.6 -0.915,-2.368 -1.462,-2.825l2.932,0Zm-12.8,15.218c0,-1.417 1.471,-2.29 4.497,-2.29c2.284,0 4.797,0.62 4.797,2.203c0,1.613 -2.47,2.293 -4.711,2.293c-2.206,0 -4.583,-0.647 -4.583,-2.173l0,-0.033" style="fill:#fff;fill-rule:nonzero;"/><path d="M82.15,166.954c0.245,-2.492 1.809,-3.764 3.722,-3.764c2.053,0 3.397,1.554 3.442,3.764l-7.164,0Zm11.375,2.065c0,-0.582 0.457,-8.006 -7.813,-8.006c-4.642,0 -8.601,3.212 -8.601,8.168c0,4.375 3.103,8.235 8.971,8.235c2.913,0 4.969,-0.894 6.574,-1.679l-1.081,-2.123c-1.247,0.59 -2.917,1.312 -4.619,1.312c-2.739,0 -5.143,-1.822 -4.947,-5.907l11.516,0" style="fill:#fff;fill-rule:nonzero;"/><path d="M106.717,164.063c-1.082,-0.366 -2.419,-0.728 -3.897,-0.728c-0.683,0 -2.475,0.188 -2.475,1.434c0,0.706 0.64,1.197 2.162,2.02l1.991,1.058c3.209,1.695 4.127,3.082 4.127,4.765c0,2.772 -2.689,4.804 -6.712,4.804c-1.016,0 -3.542,-0.184 -5.697,-1.255l0.959,-2.14c1.252,0.561 2.76,1.068 4.562,1.068c1.718,0 2.77,-0.657 2.77,-1.679c0,-1.043 -1.074,-1.586 -2.764,-2.521l-1.299,-0.723c-2.042,-1.139 -4.225,-2.406 -4.225,-4.716c0,-2.601 2.796,-4.437 6.533,-4.437c1.431,0 3.297,0.328 4.78,0.889l-0.815,2.161" style="fill:#fff;fill-rule:nonzero;"/><path d="M128.495,159.331c-1.177,-0.391 -2.751,-0.877 -4.641,-0.877c-4.275,0 -7.446,2.867 -7.446,8.268c0,5.072 2.638,7.773 6.615,8.056c1.192,0.057 2.241,-0.109 2.764,-0.225l0,-5.646l-2.915,0l0,-2.581l7.435,0l0,9.54c-1.995,0.769 -4.271,1.55 -7.47,1.55c-7.052,0 -11.649,-4.434 -11.649,-10.707c0,-6.481 4.537,-10.96 11.865,-10.96c2.226,0 4.454,0.378 6.352,1.022l-0.91,2.56" style="fill:#fff;fill-rule:nonzero;"/><path d="M138.168,161.333l0.219,4.014c0.857,-2.248 2.615,-4.263 5.055,-4.263c0.313,0 0.947,0.033 1.847,0.249l-0.596,3.573c-0.418,-0.1 -1.05,-0.245 -1.734,-0.245c-1.335,0 -2.934,0.61 -3.692,2.534c-0.499,1.218 -0.542,2.921 -0.542,4.45l0,5.451l-4.541,0l0,-15.763l3.984,0" style="fill:#fff;fill-rule:nonzero;"/><path d="M152.816,161.333l0,9.485c0,1.221 0.001,2.036 0.649,2.792c0.722,0.852 1.802,0.968 2.332,0.968c1.678,0 2.876,-0.881 3.417,-2.14c0.488,-1.117 0.488,-2.609 0.488,-3.589l0,-7.516l4.539,0l0,15.763l-3.99,0l-0.212,-2.685c-1.404,2.074 -3.529,3.005 -5.797,3.005c-2.746,0 -4.516,-1.185 -5.315,-2.631c-0.626,-1.113 -0.656,-2.405 -0.656,-3.677l0,-9.775l4.545,0" style="fill:#fff;fill-rule:nonzero;"/><path d="M173.23,169.259c0,-3.609 1.571,-5.408 3.912,-5.408c2.852,0 3.543,2.737 3.543,5.172c0,2.273 -0.452,5.555 -3.638,5.555c-2.889,0 -3.817,-2.663 -3.817,-5.285l0,-0.034Zm-4.543,-7.926l0,21.57l4.543,0l0,-8.134c1.543,2.194 3.721,2.647 5.148,2.647c4.133,0 7.112,-3.079 7.112,-8.58c0,-5.575 -3.366,-7.823 -6.864,-7.823c-2.963,0 -4.829,1.6 -5.721,3.071l-0.212,-2.751l-4.006,0" style="fill:#fff;fill-rule:nonzero;"/><path d="M193.43,169.259c0,-3.609 1.571,-5.408 3.909,-5.408c2.858,0 3.55,2.737 3.55,5.172c0,2.273 -0.454,5.555 -3.645,5.555c-2.884,0 -3.814,-2.663 -3.814,-5.285l0,-0.034Zm-4.543,-7.926l0,21.57l4.543,0l0,-8.134c1.545,2.194 3.723,2.647 5.146,2.647c4.138,0 7.118,-3.079 7.118,-8.58c0,-5.575 -3.369,-7.823 -6.87,-7.823c-2.963,0 -4.829,1.6 -5.718,3.071l-0.214,-2.751l-4.005,0" style="fill:#fff;fill-rule:nonzero;"/><path d="M213.515,166.954c0.247,-2.492 1.811,-3.764 3.724,-3.764c2.051,0 3.398,1.554 3.443,3.764l-7.167,0Zm11.377,2.065c0,-0.582 0.456,-8.006 -7.813,-8.006c-4.641,0 -8.604,3.212 -8.604,8.168c0,4.375 3.105,8.235 8.973,8.235c2.915,0 4.97,-0.894 6.576,-1.679l-1.082,-2.123c-1.246,0.59 -2.918,1.312 -4.618,1.312c-2.74,0 -5.144,-1.822 -4.948,-5.907l11.516,0" style="fill:#fff;fill-rule:nonzero;"/><path d="M232.359,161.333l0.242,2.709c1.338,-2.348 3.929,-3.029 5.876,-3.029c2.372,0 4.402,0.977 5.334,2.556c0.577,0.959 0.438,2.093 0.438,3.697l0,9.83l-4.395,0l0,-9.469c0,-1.275 0.003,-3.776 -3.097,-3.776c-3.962,0 -3.818,4.433 -3.818,5.829l0,7.416l-4.544,0l0,-15.763l3.964,0" style="fill:#fff;fill-rule:nonzero;"/></g></g></svg>