<?xml version="1.0" encoding="UTF-8" standalone="no"?><!DOCTYPE svg PUBLIC "-//W3C//DTD SVG 1.1//EN" "http://www.w3.org/Graphics/SVG/1.1/DTD/svg11.dtd"><svg width="100%" height="100%" viewBox="0 0 246 246" version="1.1" xmlns="http://www.w3.org/2000/svg" xmlns:xlink="http://www.w3.org/1999/xlink" xml:space="preserve" style="fill-rule:evenodd;clip-rule:evenodd;stroke-linejoin:round;stroke-miterlimit:1.41421;"><g id="Posten"><g><path d="M148.228,132.387c-2.955,-0.18 -4.887,-0.18 -4.768,-3.501c0.061,-1.932 0.558,-3.32 6.414,-3.139c3.984,0.122 5.231,0.966 5.231,3.803l6.279,0c0,-7.002 -4.266,-9.176 -11.571,-9.296c-7.846,-0.12 -13.053,1.509 -13.173,8.814c-0.182,9.055 6.578,8.812 13.158,9.174c3.382,0.181 5.433,0.242 5.312,3.742c-0.06,2.114 -0.751,3.441 -6.608,3.261c-4.826,-0.121 -5.712,-1.329 -5.712,-3.863l-6.281,0c0,7.243 4.63,9.175 12.054,9.295c7.909,0.122 13.187,-1.748 13.308,-8.994c0.182,-9.416 -6.882,-8.873 -13.643,-9.296Zm28.833,12.737c-3.321,-0.062 -3.721,-1.741 -3.721,-3.984l0,-14.46l13.412,0l0,-5.89l-13.412,0l0,-9.519l-6.822,0l0,9.519l-3.971,0l0,5.89l3.971,0l0,14.46c0,6.58 3.923,9.537 10.745,9.537c5.854,0 9.571,-2.232 9.571,-9.295l-6.195,0c-0.071,1.879 -0.498,3.802 -3.578,3.742Zm55.522,-24.87c-4.165,0 -6.82,1.328 -8.51,2.837l0,-2.301l-5.917,0l0,29.405l6.822,0l0,-13.703c0,-5.131 -0.545,-10.201 6.823,-10.201c5.912,0 5.37,2.716 5.37,8.39l0,15.514l6.823,0l0,-16.057c0,-6.398 0.482,-13.884 -11.411,-13.884Zm-37.289,12.254c0,-3.924 0.603,-6.639 6.579,-6.639c6.339,0 6.699,2.414 6.699,6.639l-13.278,0Zm6.579,-12.254c-11.833,0 -13.522,6.76 -13.522,15.573c0,8.572 1.872,14.85 13.703,14.85c5.551,0 12.918,-1.388 12.918,-9.295l-6.601,0c-0.058,3.321 -3.603,3.681 -6.076,3.681c-5.857,0 -7.123,-1.991 -7.123,-7.002l20.161,0c0,-10.26 -0.602,-17.807 -13.46,-17.807Zm-81.263,24.388c-6.581,0 -7.183,-2.536 -7.183,-9.177c0,-6.64 0.602,-9.174 7.183,-9.174c6.579,0 7.185,2.534 7.185,9.174c0,6.641 -0.606,9.177 -7.185,9.177Zm0,-24.388c-4.769,0 -8.33,0.846 -10.865,3.321c-2.595,2.473 -3.14,6.276 -3.14,11.89c0,5.615 0.545,9.418 3.14,11.891c2.535,2.477 6.096,3.321 10.865,3.321c4.709,0 8.331,-0.844 10.867,-3.321c2.595,-2.473 3.136,-6.276 3.136,-11.891c0,-5.614 -0.541,-9.417 -3.136,-11.89c-2.536,-2.475 -6.158,-3.321 -10.867,-3.321Zm-29.45,24.388c-5.854,0 -7.484,-1.752 -7.484,-9.115c0,-7.366 1.63,-9.236 7.484,-9.236c5.072,0 6.158,2.352 6.158,9.236c0,6.88 -1.086,9.115 -6.158,9.115Zm1.088,-24.388c-3.14,-0.06 -6.7,0.663 -9.176,2.837l0,-2.301l-6.157,0l0,38.931l6.82,0l0,-11.64c1.993,2.114 4.528,2.596 7.727,2.596c11.406,0 12.672,-8.028 12.672,-15.15c0,-9.358 -1.387,-15.153 -11.886,-15.273Z" style="fill:#fff;fill-rule:nonzero;"/><path d="M65.829,120.791c-0.681,8.602 -7.872,15.371 -16.649,15.371c-8.777,0 -15.968,-6.769 -16.65,-15.371l-30.767,0c0.703,17.834 15.376,32.079 33.382,32.079c18.007,0 32.68,-14.245 33.383,-32.079l-2.699,0Z" style="fill:#fff;fill-rule:nonzero;"/><path d="M32.53,118.118c0.682,-8.603 7.873,-15.372 16.65,-15.372c8.777,0 15.969,6.769 16.649,15.372l2.699,0c-0.703,-17.835 -15.376,-32.079 -33.383,-32.079c-18.006,0 -32.679,14.244 -33.382,32.079l30.767,0Z" style="fill:#fff;fill-rule:nonzero;"/></g></g></svg>