<?xml version="1.0" encoding="UTF-8" standalone="no"?><!DOCTYPE svg PUBLIC "-//W3C//DTD SVG 1.1//EN" "http://www.w3.org/Graphics/SVG/1.1/DTD/svg11.dtd"><svg width="100%" height="100%" viewBox="0 0 246 246" version="1.1" xmlns="http://www.w3.org/2000/svg" xmlns:xlink="http://www.w3.org/1999/xlink" xml:space="preserve" style="fill-rule:evenodd;clip-rule:evenodd;stroke-linejoin:round;stroke-miterlimit:1.41421;"><g id="Statoil"><g><path d="M156.339,220.737c0,-7.616 2.772,-14.037 9.73,-14.037c6.956,0 9.727,6.421 9.727,14.037c0,7.239 -2.771,14.04 -9.727,14.04c-6.958,0 -9.73,-6.801 -9.73,-14.04Zm-11.823,0c0,13.978 7.513,22.728 21.553,22.728c14.038,0 21.553,-8.75 21.553,-22.728c0,-14.101 -7.391,-22.727 -21.553,-22.727c-14.166,0 -21.553,8.626 -21.553,22.727Z" style="fill:#fff;"/><path d="M100.96,242.619l12.719,0l-16.549,-43.523l-13.96,0l-16.338,43.523l11.91,0l3.18,-9.23l16.122,0l2.916,9.23Zm-16.188,-17.526l5.379,-16.677l5.272,16.677l-10.651,0Z" style="fill:#fff;"/><path d="M110.338,199.131l32.535,0l0,8.753l-10.39,0l0,34.774l-11.743,0l0,-34.774l-10.402,0l0,-8.753Z" style="fill:#fff;"/><path d="M37.875,199.131l32.535,0l0,8.753l-10.392,0l0,34.774l-11.741,0l0,-34.774l-10.402,0l0,-8.753Z" style="fill:#fff;"/><path d="M206.68,199.151l0,43.49l-11.743,0l0,-43.502l11.743,0.012Z" style="fill:#fff;"/><path d="M216.092,242.625l0,-43.507l11.743,0.013l0,34.483l13.634,0l0,9.027l-25.377,-0.016Z" style="fill:#fff;"/><path d="M4.9,231.655c2.955,1.616 7.887,2.86 12.629,2.86c3.631,0 7.079,-0.747 7.079,-4.226c0,-8.086 -20.317,-2.988 -20.317,-18.784c0,-10.449 10.095,-13.309 18.716,-13.309c4.127,0 8.011,0.623 10.904,1.618l0,9.337c-2.953,-1.368 -6.839,-2.371 -10.103,-2.371c-2.893,0 -7.695,0.248 -7.695,4.04c0,7.029 20.317,2.301 20.317,17.975c0,11.257 -9.358,14.307 -18.901,14.307c-4.006,0 -8.83,-0.624 -12.65,-1.866l0.021,-9.581Z" style="fill:#fff;"/><path d="M120.066,169.726c40.158,0 72.71,-31.613 72.71,-70.609c0,-27.028 -15.635,-50.52 -38.602,-62.388c-20.403,-10.545 -23.788,-21.401 -24.989,-27.854c-0.944,-5.087 -0.934,-6.58 -4.377,-6.58l0,42.951c0,13.202 10.507,25.085 17.469,31.962c0.773,0.762 2.06,2.106 3.471,4.001c0.161,0.212 0.316,0.429 0.472,0.657c3.427,4.864 5.428,10.74 5.428,17.071c0,16.801 -14.198,30.416 -31.582,30.416c-17.378,0 -31.581,-13.615 -31.581,-30.416c0,-6.331 2.001,-12.207 5.428,-17.071c0.156,-0.228 0.316,-0.445 0.477,-0.657c1.406,-1.895 2.688,-3.239 3.465,-4.001c6.962,-6.877 17.475,-18.76 17.475,-31.962l0,-42.951c-3.449,0 -3.433,1.493 -4.382,6.58c-1.196,6.453 -4.575,17.309 -24.989,27.854c-22.968,11.868 -38.597,35.36 -38.597,62.388c0,38.996 32.546,70.609 72.704,70.609Z" style="fill:#fff;"/></g></g></svg>