<?xml version="1.0" encoding="UTF-8" standalone="no"?><!DOCTYPE svg PUBLIC "-//W3C//DTD SVG 1.1//EN" "http://www.w3.org/Graphics/SVG/1.1/DTD/svg11.dtd"><svg width="100%" height="100%" viewBox="0 0 246 246" version="1.1" xmlns="http://www.w3.org/2000/svg" xmlns:xlink="http://www.w3.org/1999/xlink" xml:space="preserve" style="fill-rule:evenodd;clip-rule:evenodd;stroke-linejoin:round;stroke-miterlimit:1.41421;"><g id="Statnett"><g><path d="M13.484,130.486c0.26,5.463 3.642,7.222 8.784,7.222c3.643,0 7.416,-1.302 7.416,-4.748c0,-4.098 -6.642,-4.876 -13.339,-6.766c-6.634,-1.885 -13.589,-4.88 -13.589,-13.398c0,-10.149 10.205,-14.111 18.923,-14.111c9.235,0 18.536,4.486 18.601,14.956l-12.093,0c0.193,-4.226 -3.775,-5.595 -7.483,-5.595c-2.6,0 -5.852,0.914 -5.852,3.971c0,3.574 6.695,4.227 13.462,6.114c6.699,1.883 13.463,5.005 13.463,13.396c0,11.77 -10.017,15.548 -20.23,15.548c-10.663,0 -20.092,-4.685 -20.161,-16.589l12.098,0Z" style="fill:#fff;fill-rule:nonzero;"/><path d="M63.585,119.496l-6.83,0l0,15.348c0,2.668 1.559,3.25 3.97,3.25c0.91,0 1.884,-0.128 2.86,-0.128l0,8.128c-2.019,0.072 -4.033,0.328 -6.048,0.328c-9.429,0 -11.84,-2.729 -11.84,-11.905l0,-32.388l11.058,0l0,10.212l6.83,0l0,7.155Z" style="fill:#fff;fill-rule:nonzero;"/><path d="M82.23,140.243c5.266,0 7.023,-2.992 6.766,-9.949c-1.562,0.974 -4.428,1.17 -6.828,1.817c-2.479,0.586 -4.554,1.626 -4.554,4.295c0,2.73 2.144,3.837 4.616,3.837m-14.311,-17.496c0.195,-4.423 2.279,-7.286 5.268,-9.044c2.998,-1.687 6.899,-2.337 10.73,-2.337c8.009,0 15.741,1.758 15.741,11.315l0,14.765c0,2.864 0,5.978 1.301,8.648l-11.121,0c-0.393,-1.039 -0.523,-2.08 -0.652,-3.185c-2.859,2.992 -7.085,4.166 -11.121,4.166c-6.438,0 -11.509,-3.254 -11.509,-10.213c0,-10.995 11.966,-10.148 19.639,-11.705c1.887,-0.396 2.925,-1.044 2.925,-3.128c0,-2.533 -3.049,-3.508 -5.33,-3.508c-3.06,0 -5.009,1.362 -5.526,4.226l-10.345,0Z" style="fill:#fff;fill-rule:nonzero;"/><path d="M122.817,119.496l-6.831,0l0,15.348c0,2.668 1.561,3.25 3.967,3.25c0.909,0 1.886,-0.128 2.864,-0.128l0,8.128c-2.018,0.072 -4.034,0.328 -6.054,0.328c-9.427,0 -11.833,-2.729 -11.833,-11.905l0,-32.388l11.056,0l0,10.212l6.831,0l0,7.155Z" style="fill:#fff;fill-rule:nonzero;"/><path d="M128.464,112.309l10.725,0l0,4.616l0.131,0c2.021,-3.449 6.572,-5.592 10.598,-5.592c11.256,0 12.164,8.192 12.164,13.073l0,21.656l-11.055,0l0,-16.327c0,-4.611 0.522,-9.299 -5.523,-9.299c-4.163,0 -5.981,3.514 -5.981,7.222l0,18.404l-11.059,0l0,-33.753Z" style="fill:#fff;fill-rule:nonzero;"/><path d="M190.45,125.709c-0.191,-3.776 -2.859,-6.897 -6.574,-6.897c-3.897,0 -6.502,2.793 -7.153,6.897l13.727,0Zm-13.727,6.179c0.203,4.614 2.866,7.669 7.549,7.669c2.668,0 5.27,-1.234 6.312,-3.705l10.341,0c-2.019,7.808 -9.238,11.19 -16.786,11.19c-10.99,0 -18.469,-6.636 -18.469,-17.957c0,-10.34 8.262,-17.752 18.206,-17.752c12.101,0 18.154,9.103 17.633,20.555l-24.786,0Z" style="fill:#fff;fill-rule:nonzero;"/><path d="M222.963,119.463l-6.829,0l0,15.349c0,2.668 1.562,3.249 3.969,3.249c0.91,0 1.886,-0.128 2.86,-0.128l0,8.129c-2.018,0.072 -4.037,0.327 -6.049,0.327c-9.43,0 -11.837,-2.728 -11.837,-11.904l0,-32.388l11.057,0l0,10.212l6.829,0l0,7.154Z" style="fill:#fff;fill-rule:nonzero;"/><path d="M244.374,119.463l-6.827,0l0,15.349c0,2.668 1.557,3.249 3.962,3.249c0.911,0 1.889,-0.128 2.865,-0.128l0,8.129c-2.017,0.072 -4.034,0.327 -6.056,0.327c-9.427,0 -11.83,-2.728 -11.83,-11.904l0,-32.388l11.059,0l0,10.212l6.827,0l0,7.154Z" style="fill:#fff;fill-rule:nonzero;"/></g></g></svg>