<?xml version="1.0" encoding="UTF-8" standalone="no"?><!DOCTYPE svg PUBLIC "-//W3C//DTD SVG 1.1//EN" "http://www.w3.org/Graphics/SVG/1.1/DTD/svg11.dtd"><svg width="100%" height="100%" viewBox="0 0 246 246" version="1.1" xmlns="http://www.w3.org/2000/svg" xmlns:xlink="http://www.w3.org/1999/xlink" xml:space="preserve" style="fill-rule:evenodd;clip-rule:evenodd;stroke-linejoin:round;stroke-miterlimit:1.41421;"><g id="StormFilms"><g><path d="M2.045,87.081c0.211,11.795 7.265,18.55 18.501,18.55c11.636,0 18.717,-6.085 18.717,-17.26c0,-8.624 -6.635,-11.564 -9.328,-13.021l-9.779,-4.106c-3.013,-1.237 -4.977,-2.926 -5.034,-5.297c-0.072,-2.932 1.954,-5.157 5.64,-5.157c2.697,0 4.999,2.169 5.047,5.751l12.592,0c-0.185,-9.913 -7.388,-15.935 -17.793,-15.935c-10.713,0 -17.67,6.097 -17.67,16.566c0,5.717 4.055,9.889 7.935,11.847l9.924,4.409c4.255,1.501 5.535,3.935 5.495,6.476c-0.042,2.709 -2.32,4.786 -5.524,4.82c-4.679,0.051 -5.684,-3.745 -5.961,-7.643l-12.762,0Z" style="fill:#fff;fill-rule:nonzero;"/><path d="M65.711,104.855l0,-41.991l10.312,0l0,-11.582l-34.406,0l0,11.582l10.71,0l0,41.991l13.384,0Z" style="fill:#fff;fill-rule:nonzero;"/><path d="M106.287,50.492c-15.109,0 -27.837,11.453 -27.837,27.558c0,16.104 12.943,27.89 27.837,27.89c16.214,0 27.758,-13.384 27.758,-27.89c0,-16.283 -12.649,-27.558 -27.758,-27.558Zm0,11.198c7.897,0 14.779,6.039 14.779,16.36c0,10.358 -6.843,16.102 -14.779,16.102c-8.015,0 -14.65,-5.744 -14.65,-16.102c0,-10.321 6.713,-16.36 14.65,-16.36Z" style="fill:#fff;fill-rule:nonzero;"/><path d="M154.239,62.824l6.278,0c4.231,0 8.068,3.259 8.068,7.826c0,4.641 -3.676,7.717 -8.036,7.717l-6.31,0l0,-15.543Zm0,24.49l0.82,0l12.288,17.541l15.28,0l-14.707,-18.202c8.561,-2.773 13.226,-7.614 13.226,-17.699c0,-11.063 -8.065,-17.672 -18.95,-17.672l-20.511,0l0,53.573l12.554,0l0,-17.541Z" style="fill:#fff;fill-rule:nonzero;"/><path d="M244.234,104.855l0,-53.573l-16.879,0l-10.368,35.049l-0.662,0l-10.543,-35.049l-16.738,0l0,53.573l11.812,0l0,-39.927l0.627,0l11.219,39.492l7.909,0l11.184,-39.492l0.627,0l0,39.927l11.812,0Z" style="fill:#fff;fill-rule:nonzero;"/></g><g><path d="M9.081,142.58l0,-12.205l9.366,0l0,-6.631l-9.366,0l0,-6.092l9.744,0l0,-6.41l-17.123,0l0,31.338l7.379,0Z" style="fill:#fff;fill-rule:nonzero;"/><rect x="23.692" y="111.242" width="7.149" height="31.338" style="fill:#fff;fill-rule:nonzero;"/><path d="M54.397,136.178l-9.148,0l0,-24.936l-7.725,0l0,31.338l16.873,0l0,-6.402Z" style="fill:#fff;fill-rule:nonzero;"/><path d="M95.277,132.271c0.126,7.066 4.352,11.113 11.084,11.113c6.971,0 11.213,-3.646 11.213,-10.341c0,-5.166 -3.975,-6.927 -5.588,-7.8l-5.859,-2.46c-1.805,-0.742 -2.981,-1.753 -3.016,-3.174c-0.043,-1.757 1.171,-3.089 3.379,-3.089c1.616,0 2.996,1.299 3.024,3.445l7.544,0c-0.111,-5.939 -4.427,-9.547 -10.66,-9.547c-6.418,0 -10.586,3.653 -10.586,9.925c0,3.425 2.429,5.925 4.754,7.098l5.945,2.641c2.549,0.899 3.316,2.358 3.292,3.88c-0.025,1.623 -1.39,2.867 -3.309,2.888c-2.804,0.03 -3.406,-2.244 -3.572,-4.579l-7.645,0Z" style="fill:#fff;fill-rule:nonzero;"/><path d="M90.679,142.559l0,-31.393l-9.891,0l-6.075,20.538l-0.388,0l-6.178,-20.538l-9.809,0l0,31.393l6.922,0l0,-23.397l0.367,0l6.574,23.142l4.635,0l6.554,-23.142l0.367,0l0,23.397l6.922,0Z" style="fill:#fff;fill-rule:nonzero;"/></g><g><path d="M132.703,190.632l0,-25.806l-5.39,0l0,31.004l31.942,0l0,-5.198l-26.552,0Z" style="fill:#fff;"/><path d="M238.872,116.322l0,25.806l5.389,0l0,-31.004l-31.941,0l0,5.198l26.552,0Z" style="fill:#fff;"/></g></g></svg>