<?xml version="1.0" encoding="UTF-8" standalone="no"?><!DOCTYPE svg PUBLIC "-//W3C//DTD SVG 1.1//EN" "http://www.w3.org/Graphics/SVG/1.1/DTD/svg11.dtd"><svg width="100%" height="100%" viewBox="0 0 246 246" version="1.1" xmlns="http://www.w3.org/2000/svg" xmlns:xlink="http://www.w3.org/1999/xlink" xml:space="preserve" style="fill-rule:evenodd;clip-rule:evenodd;stroke-linejoin:round;stroke-miterlimit:1.41421;"><g id="Tine"><g><path id="path5086" d="M72.368,95.485c-1.588,0.06 -5.142,-1.827 -6.123,-2.808c-0.654,-0.65 -0.922,-1.64 -0.519,-2.94c1.508,-4.867 2.386,-11.684 1.931,-17.049c-0.251,-2.868 -1.803,-3.183 -4.963,-3.183c-0.861,0 -2.118,0.187 -3.163,0.187c-1.117,0.004 -1.651,-0.374 -1.986,-1.005c-0.595,-1.101 -1.636,-3.965 -1.967,-5.289c-0.147,-0.61 0.192,-1.317 1.109,-1.608c1.005,-0.323 4.368,-0.881 7.567,-0.881c2.976,0 6.259,0.526 8.01,1.619c1.077,0.674 1.572,1.48 1.572,2.916c0,0 0,20.24 0,28.027c0,0.79 -0.619,1.982 -1.468,2.014" style="fill:#fff;"/><path id="path5088" d="M173.038,95.485c1.584,0.06 5.138,-1.827 6.119,-2.808c0.659,-0.65 0.926,-1.64 0.519,-2.94c-1.504,-4.867 -2.381,-11.684 -1.927,-17.049c0.248,-2.868 1.803,-3.183 4.959,-3.183c0.861,0 2.118,0.187 3.167,0.187c1.109,0.004 1.647,-0.374 1.982,-1.005c0.599,-1.101 1.64,-3.965 1.967,-5.289c0.152,-0.61 -0.188,-1.317 -1.105,-1.608c-1.009,-0.323 -4.368,-0.881 -7.571,-0.881c-2.972,0 -6.259,0.526 -8.006,1.619c-1.077,0.674 -1.58,1.48 -1.58,2.916c0,0 0.004,20.24 0.004,28.027c0,0.79 0.622,1.982 1.472,2.014" style="fill:#fff;"/><path id="path5090" d="M165.288,104.229c0,-1.149 -1.125,-2.078 -2.505,-2.078l-80.12,0c-1.38,0 -2.501,0.929 -2.501,2.078l0,4.045c0,1.145 1.121,2.078 2.501,2.078l80.12,0c1.38,0 2.505,-0.933 2.505,-2.078l0,-4.045" style="fill:#fff;"/><path id="path5092" d="M165.288,85.018c0,-1.153 -1.125,-2.082 -2.505,-2.082l-80.12,0c-1.38,0 -2.501,0.929 -2.501,2.082l0,8.999c0,1.153 1.121,2.079 2.501,2.079l80.12,0c1.38,0 2.505,-0.926 2.505,-2.079l0,-8.999" style="fill:#fff;"/><path id="path5094" d="M108.736,64.096c0,-1.253 1.053,-2.254 2.213,-2.426c3.451,-0.502 6.658,-0.761 11.776,-0.761c5.122,0 8.321,0.259 11.772,0.761c1.16,0.172 2.217,1.173 2.217,2.426l0,4.583l-27.978,0l0,-4.583m54.031,4.583l-19.295,0l0,-8.477c0,-4.675 -4.069,-5.074 -6.925,-5.7c-2.417,-0.534 -7.563,-0.909 -13.822,-0.885c-6.263,0.028 -11.409,0.351 -13.826,0.885c-2.852,0.626 -6.925,1.025 -6.925,5.7l0,8.477l-19.33,0c-1.381,0 -2.502,0.934 -2.502,2.078l0,4.041c0,1.153 1.121,2.083 2.502,2.083l80.123,0c1.376,0 2.497,-0.93 2.497,-2.083l0,-4.041c0,-1.144 -1.121,-2.078 -2.497,-2.078" style="fill:#fff;"/><path d="M122.553,184.619c-32.411,0.001 -64.267,2.39 -95.484,7.065c-3.207,0.435 -5.792,-0.886 -6.905,-4.551c-1.376,-4.699 -18.082,-61.838 -18.082,-61.838c-1.129,-4.332 1.878,-7.711 5.708,-7.683l229.83,0c3.826,-0.028 6.829,3.351 5.708,7.683c0,0 -16.71,57.139 -18.086,61.838c-1.113,3.665 -3.698,4.986 -6.909,4.551c-31.217,-4.675 -63.073,-7.064 -95.481,-7.065l-0.299,0Zm66.816,-55.798c-11.108,0.02 -20.176,0.646 -20.176,0.646l0,45.215c0,0 10.303,0.678 20.707,0.678c10.487,0 20.447,-0.654 20.447,-0.654l0,-8.856l-26.997,0c-0.658,0 -1.149,-0.498 -1.149,-1.148l0,-7.46c0,-0.694 0.475,-1.145 1.149,-1.145l19.761,0l0,-8.863c0,0 -13.618,0 -19.773,0c-0.646,0 -1.145,-0.515 -1.145,-1.157l0,-6.605c0,-0.678 0.499,-1.161 1.145,-1.161l27.009,0.003l0,-8.819c0,0 -9.485,-0.674 -20.447,-0.674l-0.531,0Zm-38.992,0.076c-4.679,0 -6.494,0.583 -6.494,0.583l0,27.484c0,1.22 -1.221,1.795 -2.095,0.558l-19.474,-28.042c0,0 -1.863,-0.595 -7.052,-0.595c-5.19,0 -8.242,0.595 -8.242,0.595l0,45.227c0,0 1.664,0.566 6.466,0.566c4.707,0 6.534,-0.566 6.534,-0.566c0,0 0,-19.068 0,-27.261c0,-1.304 1.397,-1.576 1.999,-0.65l19.642,27.911c0,0 2.162,0.582 7.587,0.582c4.906,0 7.647,-0.582 7.647,-0.582l0,-45.227c0,0 -2.122,-0.583 -6.518,-0.583Zm-62.177,-0.004c-4.763,0 -6.41,0.587 -6.41,0.587l0,45.227c0,0 1.815,0.566 6.41,0.566c4.588,0 6.586,-0.566 6.586,-0.566l0,-45.227c0,0 -1.6,-0.587 -6.586,-0.587Zm-44.369,9.861c0.646,0 1.152,0.507 1.152,1.169l0,34.792c0,0 2.111,0.542 6.562,0.542c4.452,0 6.442,-0.542 6.442,-0.542l0,-34.792c0,-0.662 0.523,-1.169 1.169,-1.169l14.835,0l0,-9.274c0,0 -10.112,-0.659 -22.446,-0.659c-11.735,0 -23.383,0.659 -23.383,0.659l0,9.274l15.669,0Z" style="fill:#fff;"/></g></g></svg>